<svg xmlns="http://www.w3.org/2000/svg" width="20" height="20" viewBox="0 0 20 20">
    <path data-name="사각형 1783" style="fill:none" d="M0 0h20v20H0z"/>
    <g data-name="그룹 595">
        <path data-name="패스 763" d="M1542.419 1618.581H1529.6v8.329a1.382 1.382 0 0 0 1.382 1.381h11.682a1.382 1.382 0 0 0 1.382-1.381v-6.71a1.624 1.624 0 0 0-1.627-1.619z" transform="translate(-1526.82 -1612.224)" style="fill:#fff;stroke:#fff;stroke-miterlimit:10"/>
        <path data-name="패스 764" d="m1535.883 1616.6.926 1.423h6.544a.691.691 0 0 1 .691.692v4.748H1529.6v-6.387a.692.692 0 0 1 .692-.692h5.274a.347.347 0 0 1 .317.216z" transform="translate(-1526.82 -1612.011)" style="fill:#fff;stroke:#fff;stroke-miterlimit:10"/>
    </g>
    <g data-name="그룹 5150">
        <path data-name="선 267" transform="translate(6.001 11.001)" style="stroke:#404451;fill:none" d="M0 0h8"/>
        <path data-name="선 268" transform="translate(10.001 7.001)" style="stroke:#404451;fill:none" d="M0 8V0"/>
    </g>
</svg>
