<svg xmlns="http://www.w3.org/2000/svg" width="25" height="25" viewBox="0 0 25 25">
    <path data-name="사각형 1772" style="fill:none" d="M0 0h25v25H0z"/>
    <path data-name="패스 10864" d="M11.262 7.089c-.255-.194-.128-.387.193-.387H12.6a4.514 4.514 0 0 0-4.526-4.533 4.51 4.51 0 0 0-3.255 1.284L3.283 1.915A6.919 6.919 0 0 1 8.074 0a6.7 6.7 0 0 1 6.7 6.7h1.086c.381 0 .447.193.188.387l-.956 1.018-1.017.957a.55.55 0 0 1-.834 0l-1.022-.957zM.156 6l.956-.957.961-.957a.619.619 0 0 1 .895 0l.956.957L4.941 6c.193.265.132.448-.188.448H3.6a4.527 4.527 0 0 0 4.531 4.6 4.419 4.419 0 0 0 3.194-1.345l1.531 1.538a6.7 6.7 0 0 1-4.722 1.979 6.759 6.759 0 0 1-6.7-6.774H.283C-.032 6.447-.1 6.264.156 6" transform="translate(4.399 5.89)" style="fill:#d4d4d4;fill-rule:evenodd"/>
</svg>
