<svg xmlns="http://www.w3.org/2000/svg" width="27" height="27" viewBox="0 0 27 27">
    <path data-name="사각형 1577" style="fill:none" d="M0 0h27v27H0z"/>
    <g data-name="그룹 475">
        <g data-name="그룹 474">
            <path data-name="패스 650" d="M1337.524-1022.583a1.348 1.348 0 0 1-.96-.4l-7.087-7.158a1.35 1.35 0 0 1 .009-1.909 1.35 1.35 0 0 1 1.91.009l6.137 6.2 11.419-11.293a1.349 1.349 0 0 1 1.909.01 1.349 1.349 0 0 1-.01 1.909l-12.378 12.243a1.346 1.346 0 0 1-.949.389z" style="fill:#d4d4d4" transform="translate(-1326.676 1043.547)"/>
        </g>
    </g>
</svg>
