<svg xmlns="http://www.w3.org/2000/svg" width="20" height="20" viewBox="0 0 20 20">
    <path data-name="사각형 1783" style="fill:none" d="M0 0h20v20H0z"/>
    <g data-name="그룹 475">
        <g data-name="그룹 474">
            <path data-name="패스 650" d="M1334.773-1027.455a.908.908 0 0 1-.647-.27l-4.776-4.824a.91.91 0 0 1 .006-1.287.91.91 0 0 1 1.287.006l4.136 4.179 7.7-7.611a.909.909 0 0 1 1.286.007.909.909 0 0 1-.007 1.287l-8.342 8.251a.907.907 0 0 1-.643.262z" transform="translate(-1326.556 1042.49)" style="fill:#fff"/>
        </g>
    </g>
</svg>
