<svg xmlns="http://www.w3.org/2000/svg" width="20" height="20" viewBox="0 0 20 20">
    <path data-name="사각형 1783" style="fill:none" d="M0 0h20v20H0z"/>
    <g data-name="그룹 4943" transform="translate(-1327.492 1109.715)">
        <rect data-name="사각형 1580" width="12.845" height="1.551" rx=".775" transform="rotate(-8.152 -7086.992 -9891.675)" style="fill:#fff"/>
        <rect data-name="사각형 1581" width="6.422" height="2.023" rx="1.011" transform="rotate(-8.152 -7099.476 -9913.425)" style="fill:transparent;stroke:#fff;stroke-miterlimit:10"/>
        <path data-name="패스 10891" d="m1331.341-1100.677 1.663 10.471a.664.664 0 0 0 .691.5h6.788a.664.664 0 0 0 .691-.5l1.663-10.471zm3.867 9.424h-.036a.332.332 0 0 1-.329-.3l-.664-6.282a.332.332 0 0 1 .3-.365.335.335 0 0 1 .365.295l.663 6.283a.331.331 0 0 1-.299.369zm2.213-.33a.332.332 0 0 1-.332.332.332.332 0 0 1-.332-.332v-6.283a.331.331 0 0 1 .332-.332.332.332 0 0 1 .332.332zm1.914.035a.332.332 0 0 1-.329.3h-.036a.332.332 0 0 1-.295-.365l.663-6.283a.329.329 0 0 1 .365-.295.332.332 0 0 1 .295.365z" transform="translate(.516 -1.935)" style="fill:#fff"/>
    </g>
</svg>
