<svg xmlns="http://www.w3.org/2000/svg" width="36" height="36" viewBox="0 0 36 36">
    <path data-name="사각형 143583" style="fill:none" d="M0 0h36v36H0z"/>
    <path d="M31.265 16.239a15.757 15.757 0 0 1-.25 2.791.432.432 0 0 1-.421.354h-2.681a12.6 12.6 0 0 1-1.374 3.316l1.9 1.9a.426.426 0 0 1 .049.543 15.537 15.537 0 0 1-2.962 3.206.43.43 0 1 1-.543-.666 14.654 14.654 0 0 0 2.589-2.736l-1.882-1.881a.433.433 0 0 1-.061-.531 11.628 11.628 0 0 0 1.521-3.676.424.424 0 0 1 .415-.33h2.656a14.894 14.894 0 0 0 0-4.58h-2.656a.425.425 0 0 1-.415-.336 11.713 11.713 0 0 0-1.521-3.67.433.433 0 0 1 .061-.531l1.881-1.881a14.53 14.53 0 0 0-3.236-3.236l-1.881 1.88a.433.433 0 0 1-.531.061 11.654 11.654 0 0 0-3.67-1.521.424.424 0 0 1-.33-.415V1.632a14.894 14.894 0 0 0-4.58 0v2.656a.426.426 0 0 1-.33.415 11.98 11.98 0 0 0-3.676 1.521.433.433 0 0 1-.531-.061L6.925 4.282a14.925 14.925 0 0 0-3.237 3.237L5.569 9.4a.433.433 0 0 1 .061.531A11.713 11.713 0 0 0 4.11 13.6a.43.43 0 0 1-.415.336H1.032a15.322 15.322 0 0 0-.177 2.3 15.1 15.1 0 0 0 .177 2.29h2.656a.425.425 0 0 1 .415.336 11.654 11.654 0 0 0 1.521 3.67.433.433 0 0 1-.061.531l-1.881 1.884a14.844 14.844 0 0 0 2.589 2.736.433.433 0 0 1 .061.6.428.428 0 0 1-.33.159.406.406 0 0 1-.269-.1 15.536 15.536 0 0 1-2.962-3.206.426.426 0 0 1 .049-.543l1.9-1.9a12.6 12.6 0 0 1-1.374-3.316H.672a.426.426 0 0 1-.422-.347 15.678 15.678 0 0 1 0-5.581.432.432 0 0 1 .421-.354h2.681a12.6 12.6 0 0 1 1.374-3.317l-1.9-1.893a.426.426 0 0 1-.049-.543 15.674 15.674 0 0 1 3.952-3.951.425.425 0 0 1 .543.049l1.9 1.9a12.6 12.6 0 0 1 3.316-1.374V1.278a.426.426 0 0 1 .354-.421A15.357 15.357 0 0 1 15.633.6a15.913 15.913 0 0 1 2.791.25.432.432 0 0 1 .354.421v2.688a12.6 12.6 0 0 1 3.316 1.374l1.893-1.9a.426.426 0 0 1 .543-.049 15.674 15.674 0 0 1 3.951 3.951.426.426 0 0 1-.049.543l-1.9 1.9a12.6 12.6 0 0 1 1.374 3.316h2.687a.426.426 0 0 1 .421.354 15.706 15.706 0 0 1 .251 2.791z" transform="translate(2.367 2.768)" style="fill:#d4d4d4;stroke:#d4d4d4;stroke-width:.5px"/>
    <path data-name="패스 11165" d="M6.714 0a6.714 6.714 0 0 1 6.714 6.714c0 .171-.043.768-.043.768l-6.67.128H.059S0 7.107 0 6.714A6.714 6.714 0 0 1 6.714 0z" transform="translate(11.286 24.729)" style="fill:#fff"/>
    <g data-name="타원 1516" transform="translate(13 13)" style="stroke:#fff;stroke-width:1.5px;fill:none">
        <circle cx="5" cy="5" r="5" style="stroke:none"/>
        <circle cx="5" cy="5" r="4.25" style="fill:none"/>
    </g>
</svg>
