<svg xmlns="http://www.w3.org/2000/svg" width="27" height="27" viewBox="0 0 27 27">
    <path data-name="사각형 1577" style="fill:none" d="M0 0h27v27H0z"/>
    <g data-name="그룹 475">
        <path data-name="패스 10915" d="m6.138 333.906-.857-.593a.651.651 0 0 1-.157-.917l9.28-14.878a.651.651 0 0 1 1.071.741L7.052 333.73a.651.651 0 0 1-.914.176" transform="translate(-.036 -308.626)" style="fill:#d4d4d4"/>
        <path data-name="패스 10916" d="m519.254 6.778 1.4-2.277a.685.685 0 0 0 .1-.449l-.36-2.652a.685.685 0 0 1 .84-.757l2.6.626a.685.685 0 0 0 .456-.048L526.7.069a.685.685 0 0 1 .979.565l.207 2.664a.685.685 0 0 0 .187.419l1.843 1.935a.685.685 0 0 1-.235 1.106l-2.47 1.02a.685.685 0 0 0-.341.307l-1.27 2.352a.685.685 0 0 1-1.124.119l-1.736-2.034a.685.685 0 0 0-.4-.229l-2.629-.483a.685.685 0 0 1-.46-1.032" transform="translate(-508.068 1.603)" style="fill:#d4d4d4"/>
    </g>
</svg>
