<svg xmlns="http://www.w3.org/2000/svg" width="40" height="40" viewBox="0 0 40 40">
    <path data-name="사각형 1612" style="fill:none" d="M0 0h40v40H0z"/>
    <g data-name="그룹 5366">
        <g data-name="사각형 143577" style="stroke:#383e47;fill:#fff">
            <path style="stroke:none" d="M0 0h12v4H0z" transform="translate(6 8)"/>
            <path style="fill:none" d="M-.5-.5h13v5h-13z" transform="translate(6 8)"/>
        </g>
        <g data-name="사각형 143581" style="stroke:#383e47;fill:#fff">
            <path style="stroke:none" d="M0 0h9.5v3H0z" transform="translate(6 19)"/>
            <path style="fill:none" d="M-.5-.5H10v4H-.5z" transform="translate(6 19)"/>
        </g>
        <g data-name="사각형 143582" style="stroke:#383e47;fill:#fff">
            <path style="stroke:none" d="M0 0h9.5v3H0z" transform="translate(6 29)"/>
            <path style="fill:none" d="M-.5-.5H10v4H-.5z" transform="translate(6 29)"/>
        </g>
        <g data-name="사각형 143578" style="stroke:#383e47;fill:#fff">
            <path style="stroke:none" d="M0 0h12v4H0z" transform="translate(22 8)"/>
            <path style="fill:none" d="M-.5-.5h13v5h-13z" transform="translate(22 8)"/>
        </g>
        <g data-name="패스 11155" style="fill:#fff">
            <path d="M135.163 142.66a7.555 7.555 0 0 1-5.372-2.222 7.528 7.528 0 0 1-2.229-5.363c0-2.024.792-3.929 2.23-5.363a7.556 7.556 0 0 1 5.371-2.222 7.55 7.55 0 0 1 5.008 1.88l.118-.117c.253-.252.585-.391.935-.391.738 0 1.338.597 1.338 1.332v3.426c0 .733-.597 1.33-1.331 1.33h-3.438a1.328 1.328 0 0 1-1.231-.823 1.309 1.309 0 0 1 .289-1.449l.082-.082a3.03 3.03 0 0 0-1.772-.566c-.868 0-1.67.354-2.256.996a3.056 3.056 0 0 0 0 4.093 3.023 3.023 0 0 0 2.255.996c.611 0 1.2-.18 1.704-.519.225-.151.485-.231.754-.231.353 0 .684.136.933.384l1.357 1.355a1.33 1.33 0 0 1-.131 1.998 7.637 7.637 0 0 1-4.614 1.557z" style="stroke:none" transform="translate(-108.062 -110.159)"/>
            <path d="M135.163 127.99a7.083 7.083 0 0 0-5.019 2.076 7.067 7.067 0 0 0 0 10.018 7.108 7.108 0 0 0 9.33.62.83.83 0 0 0 .081-1.246l-1.357-1.355a.832.832 0 0 0-1.055-.092 3.554 3.554 0 0 1-4.607-.555 3.548 3.548 0 0 1 0-4.767 3.553 3.553 0 0 1 5.134-.121l-.466.464c-.524.523-.152 1.418.589 1.418h3.438c.459 0 .831-.372.831-.83v-3.426c0-.74-.896-1.11-1.42-.587l-.46.459a7.083 7.083 0 0 0-5.019-2.076m0-1c1.834 0 3.575.605 4.994 1.72.31-.226.68-.348 1.067-.348.47 0 .918.176 1.262.497.372.346.576.82.576 1.335v3.426c0 1.009-.821 1.83-1.831 1.83h-3.438a1.826 1.826 0 0 1-1.693-1.132 1.823 1.823 0 0 1 .084-1.575 2.547 2.547 0 0 0-1.023-.213 2.53 2.53 0 0 0-1.887.833 2.552 2.552 0 0 0 0 3.419 2.529 2.529 0 0 0 1.886.833c.511 0 1.004-.15 1.424-.433a1.845 1.845 0 0 1 1.034-.317c.486 0 .943.188 1.286.53l1.358 1.355a1.83 1.83 0 0 1-.182 2.749 8.139 8.139 0 0 1-4.917 1.66 8.052 8.052 0 0 1-5.725-2.367 8.025 8.025 0 0 1-2.376-5.717c0-2.158.844-4.188 2.376-5.717a8.053 8.053 0 0 1 5.725-2.368z" style="fill:#383e47;stroke:none" transform="translate(-108.062 -110.159)"/>
        </g>
    </g>
</svg>
