<svg xmlns="http://www.w3.org/2000/svg" width="40" height="40" viewBox="0 0 40 40">
    <g data-name="패스 714" style="fill:#fdfdfd;stroke-linecap:round;stroke-linejoin:round">
        <path d="M2255.726-324.593c-.666 0-1.252-.175-1.741-.52-.73-.515-1.106-1.225-1.089-2.053.04-1.918 2.106-3.862 3.1-4.503 1.552-1 3.641-2.346 5.832-2.907a.75.75 0 0 0-.01-.034c-.308-1.035-1.441-1.147-1.914-1.147-.262 0-.535.032-.788.094-1.095.266-2.048.98-2.756 1.57-.343.287-.688.591-1.022.885-1.417 1.247-2.883 2.537-4.807 3.142a6.16 6.16 0 0 1-1.822.285c-.843 0-1.607-.194-2.21-.562-.711-.434-1.2-1.112-1.414-1.96-.26-1.036-.191-2.157.202-3.245a7.33 7.33 0 0 1 1.732-2.68c.558-.557 1.307-1.009 2.032-1.446 1.292-.78 2.512-1.515 2.77-2.767.093-.454-.048-.627-.094-.683-.181-.223-.593-.35-1.13-.35-.253 0-.52.028-.774.083-1.153.249-2.26.761-3.384 1.566a1.406 1.406 0 0 1-.817.278c-.597 0-1.136-.43-1.341-1.07-.213-.663.01-1.35.567-1.749 1.501-1.075 3.927-2.16 5.962-2.16 1.752 0 3.036.775 3.714 2.241.595 1.287.376 2.907-.586 4.333-.771 1.147-1.886 1.844-2.963 2.518-.318.199-.647.405-.957.617-1.36.93-2.049 2.031-2.046 3.273.001.653.275.784.716.784.653 0 1.584-.379 2.217-.754.94-.558 1.798-1.315 2.627-2.047 1.444-1.274 2.936-2.59 5-3.042a5.855 5.855 0 0 1 1.249-.134c2.29 0 4.744 1.381 5.046 3.953.394.052.77.135 1.138.251 2.83.898 4.786 3.744 4.65 6.765-.042.947-.808 1.442-1.543 1.442-.422 0-.817-.16-1.085-.441-.26-.273-.39-.634-.37-1.045.104-2.32-1.543-3.696-3.327-3.944-1.137 2.733-3.634 4.841-4.687 5.643-.469.356-2.133 1.52-3.877 1.52zm4.22-5.982c-.521.288-1.024.6-1.509.906-.148.093-.302.185-.45.274-.482.29-.981.59-1.346.967a3.73 3.73 0 0 0-.55.744 3.6 3.6 0 0 0 .366-.096c.567-.178 1.107-.498 1.75-1.038a13.549 13.549 0 0 0 1.739-1.757z" style="stroke:none" transform="translate(-2237.387 355.576)"/>
        <path d="M2255.726-325.093c1.277 0 2.689-.744 3.574-1.418 1.794-1.365 3.826-3.479 4.662-5.779 2.34.128 4.272 1.882 4.154 4.5-.058 1.287 1.942 1.284 2 0 .123-2.747-1.652-5.425-4.302-6.266a6.313 6.313 0 0 0-1.457-.273c-.056-2.87-3.083-4.362-5.718-3.786-3.109.68-4.875 3.487-7.48 5.031-1.13.67-3.682 1.656-3.687-.459-.004-1.608.98-2.809 2.264-3.687 1.34-.917 2.853-1.613 3.788-3.002.744-1.103 1.127-2.587.546-3.843-1.63-3.526-6.664-1.507-8.931.116-1.038.743-.04 2.478 1.009 1.727 1.084-.776 2.26-1.365 3.57-1.648 1.184-.255 2.925-.074 2.592 1.54-.465 2.258-3.468 3.001-4.939 4.466-1.4 1.392-2.305 3.447-1.8 5.448.55 2.184 2.967 2.462 4.81 1.883 2.268-.713 3.887-2.451 5.658-3.933.869-.726 1.844-1.402 2.959-1.673 1.24-.301 2.879-.015 3.3 1.396.055.187.072.376.072.565-2.194.449-4.282 1.766-6.103 2.939-1.498.966-4.3 4.1-1.994 5.727.432.304.931.429 1.453.429m5.75-6.75a33.27 33.27 0 0 1-.336.506 14.267 14.267 0 0 1-2.61 2.902c-.583.488-1.194.903-1.922 1.132a3.57 3.57 0 0 1-.924.173c-.334.015-.206-.006-.212-.024-.155-.46.516-1.318.81-1.622.529-.547 1.251-.914 1.888-1.316 1.053-.665 2.136-1.316 3.305-1.751m-5.749 7.75c-.77 0-1.454-.206-2.03-.612-.87-.614-1.32-1.47-1.3-2.472.024-1.16.696-2.256 1.255-2.97.598-.765 1.373-1.49 2.074-1.942 1.438-.927 3.327-2.144 5.364-2.794-.328-.317-.85-.374-1.185-.374-.223 0-.455.028-.67.08-.995.242-1.888.912-2.554 1.468-.337.283-.68.584-1.011.876-1.457 1.282-2.963 2.607-4.988 3.244a6.668 6.668 0 0 1-1.972.308c-2.115 0-3.651-1.084-4.109-2.9-.285-1.132-.21-2.355.216-3.537a7.84 7.84 0 0 1 1.85-2.865c.601-.599 1.377-1.067 2.127-1.52 1.195-.72 2.324-1.401 2.538-2.439.037-.18.014-.26.009-.266-.045-.055-.284-.167-.744-.167-.217 0-.448.025-.668.073-1.084.234-2.131.72-3.198 1.483-.34.243-.722.372-1.108.372-.815 0-1.545-.57-1.817-1.417-.28-.874.014-1.78.752-2.308 1.452-1.04 3.96-2.253 6.253-2.253.9 0 1.701.189 2.378.561.783.43 1.385 1.093 1.79 1.97.669 1.447.436 3.25-.625 4.821-.831 1.235-1.99 1.96-3.113 2.663-.328.205-.638.4-.94.605-1.233.844-1.83 1.779-1.828 2.86 0 .143.02.228.034.265.029.009.088.02.182.02.555 0 1.406-.354 1.962-.684.9-.534 1.702-1.242 2.551-1.992 1.491-1.316 3.033-2.677 5.224-3.156.441-.096.897-.145 1.356-.145 1.396 0 2.728.442 3.749 1.245.913.718 1.51 1.681 1.731 2.77.291.054.575.124.854.213 3.043.965 5.145 4.02 5 7.264-.05 1.094-.928 1.92-2.043 1.92a2.001 2.001 0 0 1-1.447-.597 1.896 1.896 0 0 1-.508-1.413c.083-1.854-1.125-3.014-2.53-3.356-1.245 2.662-3.643 4.686-4.681 5.476-.5.38-2.28 1.622-4.18 1.622z" style="fill:#383e47;stroke:none" transform="translate(-2237.387 355.576)"/>
    </g>
    <path data-name="사각형 1618" style="fill:none" d="M0 0h40v40H0z"/>
</svg>
