<svg xmlns="http://www.w3.org/2000/svg" width="170" height="20.556" viewBox="0 0 170 20.556">
    <defs>
        <clipPath id="1twyz91l1a">
            <path data-name="사각형 143538" style="fill:none" d="M0 0h170v20.556H0z"/>
        </clipPath>
    </defs>
    <g data-name="그룹 5295" style="clip-path:url(#1twyz91l1a)">
        <path data-name="패스 11117" d="M151.807 9.37v-.078a2.482 2.482 0 0 0-2.482-2.479h-14.779v2.5h13.989v2.034H133.51v2.5h8.359a1.627 1.627 0 0 0-.351 1.008 1.655 1.655 0 0 0 .374 1.036h-7.346v2.5h13.989v3.6h3.272v-3.618a2.482 2.482 0 0 0-2.482-2.479h-4.846a1.638 1.638 0 0 0 .023-2.044h8.354v-2.5h-1.045z" transform="translate(-72.592 -3.704)" style="fill:#fff"/>
        <path data-name="패스 11118" d="M186.362 15.359 190 9.294l3.618 6.059h3.272l-3.618-6.06h3.258v-2.5h-13.075v2.5h3.276l-3.641 6.066z" transform="translate(-99.55 -3.693)" style="fill:#fff"/>
        <path data-name="패스 11119" d="M203.8 5.709h-3.267v4.282a1.663 1.663 0 1 0 0 1.766v7.124h-10.911v-2.725h-3.272v2.749a2.479 2.479 0 0 0 2.482 2.478h14.97z" transform="translate(-101.323 -3.104)" style="fill:#fff"/>
        <path data-name="패스 11120" d="M103.383 8.123a1.661 1.661 0 0 0-1.405.78V5.709h-3.272v13.172H87.787v-2.387H84.52v2.41A2.478 2.478 0 0 0 87 21.382h14.97V10.668a1.661 1.661 0 1 0 1.405-2.545" transform="translate(-45.955 -3.104)" style="fill:#fff"/>
        <path data-name="패스 11121" d="M84.592 11.034a4 4 0 1 0 7.04-2.6h3.5V5.922h-5.671a1.581 1.581 0 1 0-1.729 0H82.06V8.43h3.5a3.983 3.983 0 0 0-.967 2.6m4 1.416a1.417 1.417 0 1 1 1.419-1.416 1.416 1.416 0 0 1-1.419 1.416" transform="translate(-44.618 -1.642)" style="fill:#fff"/>
        <path data-name="패스 11122" d="M249.243 7.808a1.58 1.58 0 1 0 0 1.725v2.135a1.579 1.579 0 1 0 0 1.726v2.3H235.08v2.5h14.163v3.19h3.272V5.708h-3.272z" transform="translate(-127.818 -3.103)" style="fill:#fff"/>
        <path data-name="패스 11123" d="M244.446 15.356v-2.309h-8.56v-.815h8.555l.018-3.119a2.332 2.332 0 0 0-2.331-2.313h-9.513v2.31h8.564v.812h-8.569l.014 3.122a2.311 2.311 0 0 0 2.313 2.309z" transform="translate(-126.475 -3.698)" style="fill:#fff"/>
        <path data-name="사각형 143537" transform="translate(143.778 2.605)" style="fill:#fff" d="M0 0h3.272v15.681H0z"/>
        <path data-name="패스 11124" d="m293.142 18.532-.005-9.25v-.17a2.312 2.312 0 0 0-2.313-2.312h-9.514v2.31h8.565v9.4z" transform="translate(-152.954 -3.698)" style="fill:#fff"/>
        <path data-name="패스 11125" d="M349.532 17.91h-19.343v2.5h8.067a1.735 1.735 0 0 0-.059.438 1.653 1.653 0 0 0 .073.453h-7.018v1.823h13.953v.64h-13.957l.009 2.331.01.134a2.107 2.107 0 0 0 2.308 1.823h14.9v-1.818h-13.951v-.643h13.944v-2.462a2.108 2.108 0 0 0-2.309-1.824h-4.7a1.65 1.65 0 0 0 .068-.453 1.754 1.754 0 0 0-.059-.438h8.067z" transform="translate(-179.531 -9.738)" style="fill:#fff"/>
        <path data-name="패스 11126" d="M337.584 9.177h6.173l2.058 2.111h3.846l-4.289-4.421h-9.4l-4.294 4.421h3.846z" transform="translate(-180.342 -3.734)" style="fill:#fff"/>
        <path data-name="패스 11127" d="M22.025 0a10.234 10.234 0 0 0-5.872 1.848 10.276 10.276 0 1 0-5.873 18.708 10.217 10.217 0 0 0 5.872-1.849A10.276 10.276 0 1 0 22.025 0" style="fill:#fff"/>
        <path data-name="패스 11128" d="M51.084 14.982 35.63 26.928a10.278 10.278 0 0 0 15.454-11.946" transform="translate(-19.373 -8.146)" style="fill:#e50019"/>
        <path data-name="패스 11129" d="m18.023 6.314 2.628-1.706L26.893.554A10.084 10.084 0 0 0 25.268.2l-4.937 3.966-2.308 1.853-4.3 2.894L3.44 15.841a9.329 9.329 0 0 0 .76 1.053l9.45-7.229z" transform="translate(-1.87 -.109)" style="fill:#e50019"/>
        <path data-name="패스 11130" d="M43.067 12.538a9.29 9.29 0 0 0-.575-1.179l-10.91 8.309-3.892 2.962-1.519.96-4.951 3.124c.2.012.4.018.6.018a10.379 10.379 0 0 0 1.862-.168l2.87-2.6 1.141-1.036 3.573-2.412z" transform="translate(-11.538 -6.176)" style="fill:#e50019"/>
        <path data-name="패스 11131" d="m24.83 19.136 4.3-2.894 10.287-6.923a9.894 9.894 0 0 0-.757-1.053l-9.45 7.227-4.38 3.349-2.63 1.707-6.24 4.056a10.13 10.13 0 0 0 1.629.353l4.932-3.967z" transform="translate(-8.678 -4.494)" style="fill:#e50019"/>
        <path data-name="패스 11132" d="m19.246 9.06 3.486-2.295L30 1.976a10.138 10.138 0 0 0-1.332-.6l-6.196 4.862-3.226 2.531-4.38 2.937-9.176 6.147a9.909 9.909 0 0 0 .935.922l8.309-6.393z" transform="translate(-3.094 -.748)" style="fill:#e50019"/>
        <path data-name="패스 11133" d="m20.763 12.173 4.084-2.714L33.051 4a10.357 10.357 0 0 0-1.113-.778l-7.269 5.631-3.906 3.027-4.079 2.72-8.2 5.463a10.166 10.166 0 0 0 1.113.778l7.265-5.641z" transform="translate(-4.611 -1.75)" style="fill:#e50019"/>
        <path data-name="패스 11134" d="m22.59 15.544 4.385-2.935 9.171-6.144a9.879 9.879 0 0 0-.931-.924l-8.309 6.39-4.316 3.318-3.481 2.3-7.269 4.791a10.227 10.227 0 0 0 1.332.6l6.2-4.864z" transform="translate(-6.438 -3.013)" style="fill:#e50019"/>
        <path data-name="패스 11135" d="M10.28 0A10.28 10.28 0 0 0 .593 13.721L16.052 1.772A10.243 10.243 0 0 0 10.28 0" style="fill:#e50019"/>
        <path data-name="패스 11136" d="m17.077 4.094 1.523-.957 4.942-3.12A10.5 10.5 0 0 0 22.953 0 10.281 10.281 0 0 0 21.1.167l-2.879 2.6L17.077 3.8l-3.569 2.415L1.7 14.195a10.655 10.655 0 0 0 .575 1.178l10.914-8.316z" transform="translate(-.924)" style="fill:#e50019"/>
        <path data-name="패스 11137" d="M42.8 17.936h3.26v-2.248h-3.39a3.129 3.129 0 1 0 0 6.258h3.39V19.7H42.8a.88.88 0 0 1 0-1.761" transform="translate(-21.499 -8.529)" style="fill:#e50019"/>
        <path data-name="패스 11138" d="M16.58 15.687a3.129 3.129 0 0 0 0 6.258h3.39v-6.257z" transform="translate(-7.313 -8.529)" style="fill:#e50019"/>
        <path data-name="패스 11139" d="M17.157 22.038a2.64 2.64 0 0 1 0-5.28h2.9v1.272H17.29a1.363 1.363 0 0 0-1.1.561l-.128.173h4v1.271h-4l.123.173a1.379 1.379 0 0 0 1.1.562h2.77v1.27h-2.9" transform="translate(-7.895 -9.112)" style="fill:#fff"/>
        <path data-name="패스 11140" d="M28.371 20.36a.11.11 0 0 1-.068-.014.6.6 0 0 1 .05-.037l1.027-.692 1.159.743zm1.661-3.089c-.224.151-.493.329-.671.451l-.7-.451zm2.943 2.769a2.88 2.88 0 0 0 .055-.56v-.052s-.014.016-.018.017a2.613 2.613 0 0 0 .018-.346v-.722h-1.584v.682l-.634-.406.475-.318a1.606 1.606 0 0 0 .78-1.293 1.241 1.241 0 0 0-.05-.338 1.525 1.525 0 0 0-1.643-1.017h-1.939a1.612 1.612 0 0 0-1.592 1.043 1.4 1.4 0 0 0 .607 1.649s.242.153.479.307c-.123.085-.269.183-.269.183l-.1.066a1.7 1.7 0 0 0-.853 1.406 1.522 1.522 0 0 0 .041.346 1.615 1.615 0 0 0 1.62 1.26H30.9a1.765 1.765 0 0 0 1.31-.511l1.068.684.858-1.333-1.164-.745" transform="translate(-14.523 -8.529)" style="fill:#e50019"/>
        <path data-name="패스 11141" d="m29.9 19.654-1.232.825a.5.5 0 0 0-.265.542.534.534 0 0 0 .552.41h2.532a.705.705 0 0 0 .63-.285l.082-.094-2.24-1.438zm-1.036-2.291a.364.364 0 0 0-.411.348.422.422 0 0 0 .228.364l1.273.815 1.351-.906c.21-.141.278-.251.251-.395a.315.315 0 0 0-.342-.224zm-1.054 3.794a1.179 1.179 0 0 1 .611-1.237l.1-.067.885-.6-1.1-.708a.91.91 0 0 1-.411-1.075 1.136 1.136 0 0 1 1.132-.717h1.939c.639 0 1.059.235 1.173.661a1.016 1.016 0 0 1-.534 1.094l-1.091.734 1.976 1.267.037-.474v-.59h.607v.611a2.524 2.524 0 0 1-.1.7l-.023.078s.894.573 1.045.672c-.073.118-.251.393-.324.51l-1.008-.645-.064.077a1.328 1.328 0 0 1-1.159.583h-2.549a1.146 1.146 0 0 1-1.145-.881" transform="translate(-15.104 -9.111)" style="fill:#fff"/>
        <path data-name="패스 11142" d="M43.252 22.038a2.64 2.64 0 1 1 0-5.28h2.9v1.272H43.38a1.37 1.37 0 0 0 0 2.739h2.77v1.27h-2.9" transform="translate(-22.081 -9.112)" style="fill:#fff"/>
    </g>
</svg>
