<svg xmlns="http://www.w3.org/2000/svg" width="40" height="40" viewBox="0 0 40 40">
    <g data-name="그룹 4768">
        <path data-name="사각형 143221" transform="translate(7 7.512)" style="fill:#fdfdfd" d="M0 0h26v4H0z"/>
        <path data-name="합치기 32" d="M-85 21V-5h4v26zm4-16v-6h1.625A2.009 2.009 0 0 0-80.958.958v4.043zm-4-4.09A2 2 0 0 0-87-1h2V.911z" transform="translate(98.083 12.512)" style="fill:#fdfdfd"/>
        <path data-name="사각형 143225" transform="rotate(180 11.54 13.756)" style="fill:#fdfdfd" d="M0 0h16v4H0z"/>
        <path data-name="빼기 17" d="M4.9 9.571h-4v-5a5.006 5.006 0 0 1 5-5L9.808-.46v4.031H6.9a2 2 0 0 0-2 2v4z" transform="translate(23.176 13.941)" style="fill:#fff"/>
        <path data-name="빼기 18" d="M5 10H1V5a5.006 5.006 0 0 1 5-5h6v4H7a2 2 0 0 0-2 2v4z" transform="rotate(180 14.546 13.756)" style="fill:#fff"/>
        <path data-name="패스 10811" d="M938.336 974.231h3.73a1.835 1.835 0 0 1 1.442.618 2.658 2.658 0 0 1 .343 1.579V996" transform="translate(-931.336 -962.488)" style="stroke:#383e47;fill:none"/>
        <path data-name="패스 10812" d="M948.091 996.013v-19.361a3.009 3.009 0 0 1 .423-1.8 1.584 1.584 0 0 1 1.219-.616h14" transform="translate(-930.732 -962.488)" style="stroke:#383e47;fill:none"/>
        <path data-name="패스 10813" d="M883.949 966.488h25.972" transform="translate(-876.921 -959.488)" style="stroke:#383e47;fill:none"/>
        <path data-name="패스 10814" d="M851 982.53h14.194a4.245 4.245 0 0 0 2-.406 1.431 1.431 0 0 0 .757-1.261v-3.287a4.949 4.949 0 0 1 1.261-3.351 4.563 4.563 0 0 1 3.062-1.3h4.647" transform="translate(-843.921 -959.488)" style="stroke:#383e47;fill:none"/>
        <path data-name="패스 10815" d="M850.97 987.481h15.2a7.486 7.486 0 0 0 4.445-1.465 4.788 4.788 0 0 0 1.765-3.351V979.7a2.6 2.6 0 0 1 .579-1.782 1.793 1.793 0 0 1 1.259-.452h2.7" transform="translate(-843.921 -959.488)" style="stroke:#383e47;fill:none"/>
        <g data-name="사각형 143231" transform="rotate(90 5.634 24.145)" style="stroke:#383e47;fill:#fdfdfd">
            <rect width="4" height="7" rx="2" style="stroke:none"/>
            <rect x=".5" y=".5" width="3" height="6" rx="1.5" style="fill:none"/>
        </g>
        <g data-name="사각형 143223" transform="rotate(90 1.938 16.45)" style="stroke:#383e47;fill:#fdfdfd">
            <rect width="4" height="7" rx="2" style="stroke:none"/>
            <rect x=".5" y=".5" width="3" height="6" rx="1.5" style="fill:none"/>
        </g>
        <g data-name="그룹 4767" transform="translate(10.939 21.512)">
            <rect data-name="사각형 143232" width="7" height="7" rx="1" transform="translate(.561 .488)" style="fill:#8071f2;opacity:.5"/>
            <g data-name="사각형 143233" style="stroke:#8071f2;stroke-linecap:round;stroke-linejoin:round;stroke-dasharray:1 1;fill:none">
                <path style="stroke:none" d="M0 0h8v8H0z"/>
                <path style="fill:none" d="M.5.5h7v7h-7z"/>
            </g>
        </g>
    </g>
    <path data-name="사각형 143239" style="fill:none" d="M0 0h40v40H0z"/>
</svg>
