<svg xmlns="http://www.w3.org/2000/svg" width="27" height="27" viewBox="0 0 27 27">
    <path data-name="사각형 1579" style="fill:none" d="M0 0h27v27H0z"/>
    <g data-name="그룹 4943" transform="translate(-1326.629 1109.928)">
        <rect data-name="사각형 1580" width="18.067" height="2.181" rx="1" transform="rotate(-8.152 -7078.72 -9891.085)" style="fill:#d4d4d4"/>
        <rect data-name="사각형 1581" width="9.033" height="2.845" rx="1.423" transform="rotate(-8.152 -7096.279 -9921.68)" style="stroke:#d4d4d4;stroke-miterlimit:10;fill:none"/>
        <path data-name="패스 10891" d="m1331.341-1100.677 2.339 14.728a.935.935 0 0 0 .971.7h9.548a.934.934 0 0 0 .972-.7l2.34-14.728zm5.439 13.254h-.05a.467.467 0 0 1-.463-.417l-.933-8.837a.467.467 0 0 1 .415-.513.471.471 0 0 1 .512.414l.933 8.837a.466.466 0 0 1-.414.516zm3.112-.464a.467.467 0 0 1-.467.467.467.467 0 0 1-.467-.467v-8.837a.466.466 0 0 1 .467-.467.466.466 0 0 1 .467.467zm2.692.049a.467.467 0 0 1-.463.417h-.05a.466.466 0 0 1-.415-.513l.933-8.837a.462.462 0 0 1 .513-.414.467.467 0 0 1 .414.513z" transform="translate(.854 .168)" style="fill:#d4d4d4"/>
    </g>
</svg>
