<svg xmlns="http://www.w3.org/2000/svg" width="40" height="40" viewBox="0 0 40 40">
    <path data-name="사각형 143504" style="fill:none" d="M0 0h40v40H0z"/>
    <g data-name="그룹 5137">
        <path data-name="패스 11034" d="M90.3 79.38a7.308 7.308 0 1 0 7.309 7.308A7.308 7.308 0 0 0 90.3 79.38zm-3.463 10.009a.494.494 0 0 1-.387-.8l5.105-6.422a.494.494 0 0 1 .774.615l-5.1 6.422a.492.492 0 0 1-.387.187zm7.632-4.468-5.105 6.422a.494.494 0 1 1-.774-.614l5.11-6.422a.494.494 0 1 1 .774.614z" transform="translate(-72.882 -69.484)" style="fill:none"/>
        <path data-name="합치기 35" d="m23.338 26.147-.708-.706-.064-.065 2.667-2.668-2.667 2.667-.653-.643-5.768-5.681a10.458 10.458 0 1 1 2.705-2.628l5.73 5.643.574.567.076.076.11.111.661.662c.454.453.224 1.417-.512 2.154a2.316 2.316 0 0 1-1.527.744.86.86 0 0 1-.624-.233zM3.226 10.394a7.309 7.309 0 1 0 7.309-7.309 7.309 7.309 0 0 0-7.309 7.309z" transform="translate(6.881 6.81)" style="fill:#fdfdfd;stroke:#383e47"/>
    </g>
</svg>
