<svg xmlns="http://www.w3.org/2000/svg" width="27" height="27" viewBox="0 0 27 27">
    <g transform="translate(-22 -223)">
        <rect data-name="사각형 143258" width="27" height="27" rx="5" transform="translate(22 223)" style="fill:none"/>
        <g data-name="사각형 143259" transform="translate(28 228.001)" style="stroke:#d4d4d4;fill:none">
            <rect width="18" height="20" rx="2.5" style="stroke:none"/>
            <rect x=".5" y=".5" width="17" height="19" rx="2" style="fill:none"/>
        </g>
        <g data-name="빼기 21" style="fill:#d4d4d4">
            <path d="M-4017.298-9.374a3 3 0 0 1-.202-1.082V-23.5c0-1.655 1.346-3 3-3h11.025c.421 0 .831.088 1.207.253h-11.53c-1.93 0-3.5 1.57-3.5 3.5v13.373z" style="stroke:none" transform="translate(4043 252.001)"/>
            <path d="m-4016.798-7.816-.002-.001a3.501 3.501 0 0 1-1.2-2.639V-23.5c0-1.93 1.57-3.5 3.5-3.5h11.025c1.037 0 2.015.456 2.683 1.253h-13.006c-1.654 0-3 1.346-3 3v14.931z" style="fill:#d4d4d4;stroke:none" transform="translate(4043 252.001)"/>
        </g>
    </g>
</svg>
