<svg xmlns="http://www.w3.org/2000/svg" width="36" height="36" viewBox="0 0 36 36">
    <path data-name="사각형 143271" style="fill:none" d="M0 0h36v36H0z"/>
    <g data-name="2d_5558296">
        <path data-name="패스 11156" d="M154.29 127.214c.977-.733 2.193-1.645 2.193-3.472a2.741 2.741 0 0 0-5.483 0v.914h1.828v-.914a.914.914 0 1 1 1.828 0c0 .871-.528 1.31-1.462 2.01-.977.733-2.193 1.645-2.193 3.472v.914h5.483v-1.828h-3.389a5.027 5.027 0 0 1 1.195-1.096z" transform="translate(-139.396 -110.544)" style="fill:#d4d4d4"/>
        <path data-name="패스 11157" d="M273.741 121H271v9.138h2.741a2.744 2.744 0 0 0 2.741-2.741v-3.655a2.744 2.744 0 0 0-2.741-2.742zm.914 6.4a.915.915 0 0 1-.914.914h-.914v-5.483h.914a.915.915 0 0 1 .914.914z" transform="translate(-252.086 -110.544)" style="fill:#d4d4d4"/>
        <path data-name="패스 11158" d="M28.449 0H2.741A2.744 2.744 0 0 0 0 2.741v18.337a2.744 2.744 0 0 0 2.741 2.741h8.285v4.6H7.371v1.323h16.448v-1.323h-3.655v-4.6h8.285a2.744 2.744 0 0 0 2.741-2.741V2.741A2.744 2.744 0 0 0 28.449 0zm-9.791 28.419h-6.176v-4.6h6.176zm11.337-6.827a.915.915 0 0 1-.914.914H2.236a.915.915 0 0 1-.914-.914V2.266a.915.915 0 0 1 .914-.914h26.845a.915.915 0 0 1 .914.914z" style="fill:#d4d4d4" transform="translate(2.405 3.085)"/>
    </g>
</svg>
