<svg xmlns="http://www.w3.org/2000/svg" width="17" height="17" viewBox="0 0 17 17">
    <path data-name="사각형 143275" style="fill:none" d="M0 0h17v17H0z"/>
    <path data-name="패스 10893" d="m4.911 4.933-1.266 1.5-1.184 1.505-1.229-1.545L0 4.858h1.271a7.166 7.166 0 0 1 1.661-2.775 7.105 7.105 0 0 1 10.012-.039 7.049 7.049 0 0 1-9.969 9.969 6.956 6.956 0 0 1-1.867-3.358l2.381-.005a4.056 4.056 0 0 0 1.1 1.747A4.759 4.759 0 1 0 4.553 3.7a6.593 6.593 0 0 0-.868 1.19z" transform="translate(1 1.5)" style="fill:#d4d4d4;fill-rule:evenodd"/>
</svg>
