<svg xmlns="http://www.w3.org/2000/svg" width="36" height="36" viewBox="0 0 36 36">
    <path data-name="사각형 143271" style="fill:none" d="M0 0h36v36H0z"/>
    <path data-name="패스 11160" d="m686.122 687.383 2.573 2.5 3.372 3.278.2.2a.9.9 0 0 0 1.233-.006.841.841 0 0 0-.007-1.2l-2.573-2.5-3.372-3.278-.2-.2a.9.9 0 0 0-1.233.006.841.841 0 0 0 .007 1.2z" transform="translate(-659.894 -659.654)" style="stroke-width:2px;stroke:#d4d4d4;fill:#d4d4d4"/>
    <g data-name="그룹 5368">
        <path data-name="패스 11162" d="M180.592 289.115a6.3 6.3 0 0 1 .056-.82l-.029.207a6.11 6.11 0 0 1 .264-1.11c.028-.083.059-.165.091-.247.074-.189-.062.142-.008.017l.061-.136a5.8 5.8 0 0 1 .557-.961l.065-.09a6.856 6.856 0 0 1 .175-.21 5.991 5.991 0 0 1 .828-.784l-.165.128a6.077 6.077 0 0 1 1.373-.8l-.2.083q.243-.1.494-.18a.8.8 0 1 0-.417-1.555 6.758 6.758 0 0 0-3.293 2.262 6.884 6.884 0 0 0-1.46 3.948v.237a.805.805 0 1 0 1.61.011z" transform="translate(-169.23 -270.385)" style="fill:#d4d4d4"/>
        <path data-name="패스 11163" d="M335.66 249.168v-2.181a4.569 4.569 0 0 1 .007-.473l-.029.207a1.15 1.15 0 0 1 .029-.141.755.755 0 0 1 .023-.067c-.085.233-.051.123-.019.064.094-.168-.107.121-.023.024a.886.886 0 0 1 .127-.117l-.165.128a1.041 1.041 0 0 1 .18-.105l-.2.083a1 1 0 0 1 .24-.066l-.214.028a9.854 9.854 0 0 1 1.01-.007 10.125 10.125 0 0 1 1.036.007l-.207-.029a1.157 1.157 0 0 1 .141.029q.034.01.067.023c-.233-.085-.123-.051-.064-.019.168.094-.121-.107-.024-.023a.885.885 0 0 1 .117.127l-.128-.165a1.044 1.044 0 0 1 .105.18l-.083-.2a1.009 1.009 0 0 1 .066.24l-.028-.214a4.4 4.4 0 0 1 .007.454v2.2a.805.805 0 0 0 1.61.012v-1.992a4.337 4.337 0 0 0-.054-.982 1.709 1.709 0 0 0-1.692-1.259h-1.12a3.815 3.815 0 0 0-1.136.075 1.72 1.72 0 0 0-1.191 1.672v2.476a.8.8 0 1 0 1.61.012z" transform="translate(-320.138 -233.701)" style="fill:#d4d4d4"/>
        <path data-name="패스 11164" d="M127.843 498.836h14.674a.805.805 0 0 0 .012-1.61h-14.675a.805.805 0 0 0-.012 1.61z" transform="translate(-118.685 -479.231)" style="fill:#d4d4d4"/>
        <path data-name="패스 11161" d="M468.225 284.26q.2.063.39.138c.054.021.191.079-.051-.023l.1.045c.068.03.135.062.2.095a5.944 5.944 0 0 1 .765.451c.061.042.12.086.179.13-.235-.176-.014-.009.039.035.114.093.224.192.331.293a6 6 0 0 1 .593.655l-.128-.165a6.084 6.084 0 0 1 .8 1.373l-.083-.2a6.053 6.053 0 0 1 .4 1.5l-.028-.214a6.308 6.308 0 0 1 .051.781.805.805 0 0 0 1.61.012 6.755 6.755 0 0 0-1.231-3.889 6.931 6.931 0 0 0-3.3-2.5 5.374 5.374 0 0 0-.214-.072.8.8 0 0 0-.425 1.553z" transform="translate(-450.136 -270.434)" style="fill:#d4d4d4"/>
    </g>
    <g data-name="타원 1515" transform="translate(2 2)" style="stroke-width:1.5px;stroke:#d4d4d4;fill:none">
        <circle cx="14.5" cy="14.5" r="14.5" style="stroke:none"/>
        <circle cx="14.5" cy="14.5" r="13.75" style="fill:none"/>
    </g>
</svg>
