<svg xmlns="http://www.w3.org/2000/svg" width="17" height="17" viewBox="0 0 17 17">
    <path data-name="Icon material-visibility-off" d="M9.88 7.547a3.81 3.81 0 0 1 3.809 3.809 3.7 3.7 0 0 1-.274 1.394l2.225 2.225a9 9 0 0 0 2.613-3.619 9.01 9.01 0 0 0-8.38-5.714 8.872 8.872 0 0 0-3.032.533l1.645 1.647a3.7 3.7 0 0 1 1.394-.275zM2.262 5.468 4 7.2l.35.35a8.993 8.993 0 0 0-2.849 3.8 9.006 9.006 0 0 0 11.716 5.08l.32.32 2.232 2.225.968-.968L3.229 4.5zM6.475 9.68l1.181 1.181a2.149 2.149 0 0 0-.061.5 2.282 2.282 0 0 0 2.285 2.281 2.149 2.149 0 0 0 .5-.061l1.181 1.181A3.784 3.784 0 0 1 6.475 9.68zm3.283-.594 2.4 2.4.015-.122a2.282 2.282 0 0 0-2.285-2.285l-.13.008z" transform="translate(-1.5 -3.25)" style="fill:#d4d4d4"/>
    <path data-name="사각형 143277" style="fill:none" d="M0 0h17v17H0z"/>
</svg>
