<svg xmlns="http://www.w3.org/2000/svg" width="22" height="22" viewBox="0 0 22 22">
    <path d="M21.958 3.756a4.3 4.3 0 0 0-6.083-.106L5.043 14.11a1.07 1.07 0 0 0-.292.495l-1.627 6.057a1.075 1.075 0 0 0 1.039 1.354 1.062 1.062 0 0 0 .243-.028l6.11-1.414a1.067 1.067 0 0 0 .5-.274l9.284-8.965 1.552-1.495a4.307 4.307 0 0 0 .106-6.083zM9.74 18.546l-4.073.943 1.084-4.038 8.3-8.012 2.989 3.1zM20.358 8.292l-.774.747L16.6 5.944l.773-.747a2.2 2.2 0 0 1 3.042.053 2.155 2.155 0 0 1-.053 3.042z" transform="translate(-2.127 -1.23)" style="stroke:#3a4054;stroke-width:.5px;fill:#fff"/>
</svg>
