<svg xmlns="http://www.w3.org/2000/svg" width="27.847" height="27" viewBox="0 0 27.847 27">
    <path data-name="사각형 1574" style="fill:none" d="M0 0h27v27H0z"/>
    <path data-name="패스 642" d="M1218.487-1091.323a7.193 7.193 0 0 1-5.077 2.07 7.154 7.154 0 0 1-7.149-7.149h2.78l-4.388-4.485-4.418 4.485h2.675a10.551 10.551 0 0 0 10.5 10.55 10.378 10.378 0 0 0 7.443-3.107z" transform="translate(-1199.867 1109.697)" style="fill:#d4d4d4"/>
    <path data-name="합치기 16" d="M-8096.354 487.722h8.864l-4.436 4.509zm2.753 0a7.154 7.154 0 0 0-7.148-7.147 7.119 7.119 0 0 0-5.028 2.12l-2.416-2.417a10.642 10.642 0 0 1 7.444-3.056 10.552 10.552 0 0 1 10.549 10.5z" transform="translate(8114.145 -474.082)" style="stroke:transparent;stroke-miterlimit:10;fill:#d4d4d4"/>
    <path data-name="패스 644" d="m1223.783-1093.277.5-.5z" transform="translate(-1199.867 1109.697)" style="fill:#d4d4d4"/>
</svg>
