<?xml version="1.0" encoding="UTF-8"?>
<svg id="_레이어_2" data-name="레이어 2" xmlns="http://www.w3.org/2000/svg" xmlns:xlink="http://www.w3.org/1999/xlink" viewBox="0 0 118.25 24.83">
  <defs>
    <style>
      .cls-1 {
        fill: #fff;
      }

      .cls-2 {
        fill: #41adf5;
      }

      .cls-3 {
        fill: url(#New_Gradient_Swatch_2);
      }

      .cls-4 {
        fill: #0be7f5;
      }

      .cls-5 {
        fill: #8071f2;
      }

      .cls-6 {
        fill: url(#New_Gradient_Swatch_1);
      }
    </style>
    <linearGradient id="New_Gradient_Swatch_1" data-name="New Gradient Swatch 1" x1="11.37" y1="3.26" x2="19.94" y2="3.26" gradientUnits="userSpaceOnUse">
      <stop offset="0" stop-color="#0be7f5"/>
      <stop offset="1" stop-color="#41adf5"/>
    </linearGradient>
    <linearGradient id="New_Gradient_Swatch_2" data-name="New Gradient Swatch 2" x1="26.46" y1="3.26" x2="35.03" y2="3.26" gradientUnits="userSpaceOnUse">
      <stop offset="0" stop-color="#41adf5"/>
      <stop offset="1" stop-color="#8071f2"/>
    </linearGradient>
  </defs>
  <g id="Layer_1" data-name="Layer 1">
    <g>
      <g>
        <path class="cls-1" d="M59.43,4.41c4.02,0,6.92,3.12,6.92,7.44s-2.93,7.44-6.98,7.44h-5.43V4.41h5.49ZM56.2,17.04h3.29c2.6,0,4.59-2.15,4.59-5.16s-2.05-5.21-4.69-5.21h-3.19v10.37Z"/>
        <path class="cls-1" d="M73.39,6.67v12.62h-2.26V6.67h-4.23v-2.25h10.73v2.25h-4.25Z"/>
        <path class="cls-1" d="M85.06,4.41c4.02,0,6.92,3.12,6.92,7.44s-2.93,7.44-6.98,7.44h-5.43V4.41h5.49ZM81.82,17.04h3.29c2.6,0,4.59-2.15,4.59-5.16s-2.05-5.21-4.69-5.21h-3.19v10.37Z"/>
        <g>
          <path class="cls-1" d="M96.05,12.85c0-3.67,2.21-6.26,5.16-6.26s5.16,2.59,5.16,6.26-2.19,6.26-5.16,6.26-5.16-2.59-5.16-6.26ZM105.7,12.85c0-3.28-1.92-5.52-4.49-5.52s-4.49,2.24-4.49,5.52,1.92,5.55,4.49,5.55,4.49-2.26,4.49-5.55Z"/>
          <path class="cls-1" d="M118.25,11.78v7.26h-.67v-7.21c0-2.95-1.33-4.5-3.62-4.5-2.63,0-4.23,2-4.23,5.05v6.67h-.67V6.68h.65v3.02c.67-1.9,2.18-3.12,4.31-3.12,2.57,0,4.23,1.79,4.23,5.19Z"/>
        </g>
      </g>
      <g>
        <path class="cls-4" d="M21.62,24.83h-9.2C5.56,24.83,0,19.27,0,12.41S5.56,0,12.41,0h9.2v24.83ZM15.13,6.42h-2.75c-3.24,0-5.89,2.65-5.89,5.89s2.65,5.86,5.89,5.86h2.75V6.42Z"/>
        <path class="cls-5" d="M24.79,0h9.2c6.85,0,12.41,5.56,12.41,12.41s-5.56,12.41-12.41,12.41h-9.2V0ZM31.28,18.18h2.75c3.24,0,5.89-2.65,5.89-5.89s-2.65-5.86-5.89-5.86h-2.75v11.75Z"/>
        <polygon class="cls-2" points="31.28 0 15.13 0 15.13 6.52 19.94 6.52 19.94 24.83 26.46 24.83 26.46 6.52 31.28 6.52 31.28 0"/>
        <rect class="cls-6" x="11.37" width="8.57" height="6.52"/>
        <rect class="cls-3" x="26.46" width="8.57" height="6.53"/>
      </g>
    </g>
  </g>
</svg>