<?xml version="1.0" encoding="UTF-8" standalone="no"?>
<!-- Created with Inkscape (http://www.inkscape.org/) -->

<svg
   width="61.6441"
   height="65"
   viewBox="0 0 60.466999 63.763"
   version="1.1"
   id="svg16435"
   inkscape:version="1.1.1 (3bf5ae0d25, 2021-09-20)"
   sodipodi:docname="test_02.svg"
   xmlns:inkscape="http://www.inkscape.org/namespaces/inkscape"
   xmlns:sodipodi="http://sodipodi.sourceforge.net/DTD/sodipodi-0.dtd"
   xmlns="http://www.w3.org/2000/svg"
   xmlns:svg="http://www.w3.org/2000/svg">
  <sodipodi:namedview
     id="namedview16437"
     pagecolor="#ffffff"
     bordercolor="#666666"
     borderopacity="1.0"
     inkscape:pageshadow="2"
     inkscape:pageopacity="0.0"
     inkscape:pagecheckerboard="0"
     inkscape:document-units="mm"
     showgrid="false"
     width="60.467mm"
     inkscape:zoom="0.72337262"
     inkscape:cx="-49.766883"
     inkscape:cy="451.35798"
     inkscape:window-width="1920"
     inkscape:window-height="1001"
     inkscape:window-x="-9"
     inkscape:window-y="-9"
     inkscape:window-maximized="1"
     inkscape:current-layer="layer1" />
  <defs
     id="defs16432" />
  <g
     inkscape:label="레이어 1"
     inkscape:groupmode="layer"
     id="layer1">
    <rect
       style="display:inline;fill:#ffffff;fill-opacity:0.9;stroke-width:0.0955177"
       id="rect13047"
       width="51.572651"
       height="50.109608"
       x="0.86353403"
       y="5.0353675" />
    <rect
       class="cls-1"
       x="50.514038"
       y="4.9521918"
       width="1.3229166"
       height="37.176601"
       id="rect955"
       style="display:inline;fill:#e4ebed;stroke-width:0.264583" />
    <path
       class="cls-2"
       d="m 52.895288,16.408656 v 26.259898 a 0.56620833,0.56620833 0 0 1 -0.15346,0.37306 l -13.18419,13.18419 a 0.52916666,0.52916666 0 0 1 -0.381,0.15345 H 10.395262 l 0.86519,4.90273 a 2.1378333,2.1378333 0 0 0 2.0955,1.75948 2.1404791,2.1404791 0 0 0 0.37571,-0.0344 l 44.068996,-8.001 a 2.1404791,2.1404791 0 0 0 1.73302,-2.47386 l -6.37646,-36.147358 z"
       id="path957"
       style="display:inline;fill:#40bdff;stroke-width:0.264583" />
    <polygon
       class="cls-3"
       points="162.74,168.97 162.74,211.97 205.74,168.97 "
       id="polygon959"
       style="display:inline;fill:#effafe"
       transform="matrix(0.26458333,0,0,0.26458333,-3.3445484,-1.5168646)" />
    <path
       class="cls-4"
       d="m 59.533678,52.532214 -6.37646,-36.147368 -0.26458,0.0238 v 5.98752 l 5.31548,30.133398 a 2.1404791,2.1404791 0 0 1 -1.73302,2.47385 l -43.735626,7.9375 a 2.1166666,2.1166666 0 0 0 0.61648,0.0926 2.1404791,2.1404791 0 0 0 0.37571,-0.0344 l 44.068996,-7.99306 a 2.1404791,2.1404791 0 0 0 1.73302,-2.47386 z"
       id="path961"
       style="display:inline;fill:#2197f7;stroke-width:0.264583" />
    <polygon
       class="cls-1"
       points="200.74,168.97 162.74,206.97 162.74,211.97 205.74,168.97 "
       id="polygon963"
       style="display:inline;fill:#e4ebed"
       transform="matrix(0.26458333,0,0,0.26458333,-3.3445484,-1.5168646)" />
    <path
       class="cls-5"
       d="m 3.6139916,56.506254 h 4.27302 l 0.87578,4.97682 a 3.3258125,3.3258125 0 0 0 3.2702504,2.74902 3.3655,3.3655 0 0 0 0.58472,-0.0503 l 45.389276,-8.00365 a 3.3311041,3.3311041 0 0 0 2.69875,-3.85233 L 53.027578,8.8018554 v -4.37885 a 0.66145832,0.66145832 0 0 0 -0.66146,-0.66146 H 14.102082 a 3.952875,3.952875 0 0 0 -7.7946304,0 h -2.69346 a 3.3284583,3.3284583 0 0 0 -3.32580999,3.32581 V 53.180414 a 3.3284583,3.3284583 0 0 0 3.32580999,3.32581 z M 52.826488,43.128924 v 0 a 0.68791666,0.68791666 0 0 0 0.18786,-0.46037 V 16.408656 l 6.37381,36.147378 a 2.0055416,2.0055416 0 0 1 -1.62719,2.32039 l -45.373386,8.001 a 2.0028958,2.0028958 0 0 1 -2.3204,-1.62454 L 9.2311016,56.506254 H 39.181928 a 0.66410416,0.66410416 0 0 0 0.46831,-0.19314 z m -12.99104,11.1125 v -10.92729 h 10.92729 z M 10.204762,1.7904254 a 2.6458333,2.6458333 0 0 1 2.5453,1.98438 H 7.6568316 a 2.6458333,2.6458333 0 0 1 2.5479304,-1.98438 z m -8.5936604,5.29167 a 2.0055416,2.0055416 0 0 1 2.00289,-1.98438 h 2.64584 v 5.9187306 a 3.96875,3.96875 0 1 0 7.9163304,0 V 7.7223854 a 0.66146,0.66146 0 1 0 -1.32292,0 v 3.2940606 a 2.6458333,2.6458333 0 1 1 -5.2705004,0 V 5.0977154 H 51.704658 V 41.999154 h -12.52008 a 0.66145832,0.66145832 0 0 0 -0.66146,0.66146 v 12.52273 H 3.6139916 a 2.0055416,2.0055416 0 0 1 -2.00289,-2.0029 z"
       id="path965"
       style="display:inline;fill:#263238;fill-opacity:1;stroke-width:0.264583" />
    <path
       class="cls-6"
       d="m 4.3892216,59.601884 h -1.05833 v -1.05833 a 0.264585,0.264585 0 0 0 -0.52917,0 v 1.05833 h -1.05833 a 0.264585,0.264585 0 1 0 0,0.52917 h 1.05833 v 1.05833 a 0.264585,0.264585 0 0 0 0.52917,0 v -1.05833 h 1.05833 a 0.264585,0.264585 0 0 0 0,-0.52917 z"
       id="path981"
       style="display:inline;fill:#ffdd00;stroke-width:0.264583" />
    <path
       class="cls-2"
       d="m 60.420038,25.293366 h -1.05834 v -1.05833 a 0.26458333,0.26458333 0 1 0 -0.52916,0 v 1.05833 h -1.05834 a 0.264585,0.264585 0 0 0 0,0.52917 h 1.05834 v 1.05833 a 0.26458333,0.26458333 0 0 0 0.52916,0 v -1.05833 h 1.05834 a 0.264585,0.264585 0 0 0 0,-0.52917 z"
       id="path983"
       style="display:inline;fill:#40bdff;stroke-width:0.264583" />
    <path
       class="cls-6"
       d="m 58.205468,62.006944 a 1.5875,1.5875 0 1 1 1.5875,-1.5875 1.5875,1.5875 0 0 1 -1.5875,1.5875 z m 0,-2.64583 a 1.0583333,1.0583333 0 1 0 1.05834,1.05833 1.0583333,1.0583333 0 0 0 -1.05834,-1.05833 z"
       id="path985"
       style="display:inline;fill:#ffdd00;stroke-width:0.264583" />
    <path
       class="cls-6"
       d="m 57.940888,7.2831754 a 1.5875,1.5875 0 1 1 1.5875,-1.5875 1.5875,1.5875 0 0 1 -1.5875,1.5875 z m 0,-2.64583 a 1.0583333,1.0583333 0 1 0 1.05833,1.05833 1.0583333,1.0583333 0 0 0 -1.05833,-1.05833 z"
       id="path987"
       style="display:inline;fill:#ffdd00;stroke-width:0.264583" />
    <rect
       style="display:inline;fill:#ffffff;fill-opacity:0;fill-rule:evenodd;stroke-width:0.264583"
       id="rect159"
       width="50.774963"
       height="50.679165"
       x="1.2539454"
       y="4.8060584" />
    <path
       style="display:inline;fill:#ff0000;fill-opacity:0;stroke-width:0.0958019"
       d="m 2.7867716,54.920944 c -0.46378,-0.21405 -0.75565,-0.51733 -0.95345,-0.99074 -0.13246,-0.31702 -0.14827,-2.85378 -0.14827,-23.784568 0,-25.5011306 -0.0358,-23.7831606 0.50753,-24.3656306 0.47934,-0.51388 0.79922,-0.59074 2.45851,-0.59074 h 1.53664 v 3.19628 c 0,1.7579596 0.0421,3.4184406 0.0936,3.6899506 0.39571,2.08652 2.51483,3.56265 4.5707204,3.18383 1.23007,-0.22665 2.19568,-0.86721 2.7802,-1.84432 0.51902,-0.86763 0.60282,-1.39521 0.60282,-3.7954406 v -2.13977 l -0.23515,-0.23515 c -0.2997,-0.29969 -0.66704,-0.29969 -0.96673,0 l -0.23515,0.23515 v 2.09493 c 0,2.3549906 -0.0638,2.6955006 -0.62814,3.3548606 -0.76264,0.89097 -2.09014,1.15198 -3.1207604,0.61358 -0.60313,-0.31508 -1.16863,-1.00428 -1.32121,-1.61021 -0.0634,-0.25169 -0.10319,-1.631751 -0.10319,-3.5767506 v -3.16694 H 29.036452 50.448158 V 23.583216 41.977164 h -5.79228 -5.79228 l -0.19534,0.20966 c -0.1925,0.20664 -0.19533,0.30164 -0.19533,6.56243 v 6.35276 l -17.651486,-0.002 c -16.9563404,-0.002 -17.6665704,-0.009 -18.0346904,-0.17897 z"
       id="path4057" />
    <path
       style="display:inline;fill:#ff0000;fill-opacity:0;stroke-width:0.0958019"
       d="m 2.7867716,54.920944 c -0.46378,-0.21405 -0.75565,-0.51733 -0.95345,-0.99074 -0.13246,-0.31702 -0.14827,-2.85378 -0.14827,-23.784568 0,-25.5011306 -0.0358,-23.7831606 0.50753,-24.3656306 0.47934,-0.51388 0.79922,-0.59074 2.45851,-0.59074 h 1.53664 v 3.19628 c 0,1.7579596 0.0421,3.4184406 0.0936,3.6899506 0.39571,2.08652 2.51483,3.56265 4.5707204,3.18383 1.23007,-0.22665 2.19568,-0.86721 2.7802,-1.84432 0.51902,-0.86763 0.60282,-1.39521 0.60282,-3.7954406 v -2.13977 l -0.23515,-0.23515 c -0.2997,-0.29969 -0.66704,-0.29969 -0.96673,0 l -0.23515,0.23515 v 2.09493 c 0,2.3549906 -0.0638,2.6955006 -0.62814,3.3548606 -0.76264,0.89097 -2.09014,1.15198 -3.1207604,0.61358 -0.60313,-0.31508 -1.16863,-1.00428 -1.32121,-1.61021 -0.0634,-0.25169 -0.10319,-1.631751 -0.10319,-3.5767506 v -3.16694 H 29.036452 50.448158 V 23.583216 41.977164 h -5.79228 -5.79228 l -0.19534,0.20966 c -0.1925,0.20664 -0.19533,0.30164 -0.19533,6.56243 v 6.35276 l -17.651486,-0.002 c -16.9563404,-0.002 -17.6665704,-0.009 -18.0346904,-0.17897 z"
       id="path4133" />
    <path
       style="display:inline;fill:#ff0000;fill-opacity:0;stroke-width:0.0958019"
       d="m 2.7867716,54.920944 c -0.46378,-0.21405 -0.75565,-0.51733 -0.95345,-0.99074 -0.13246,-0.31702 -0.14827,-2.85378 -0.14827,-23.784568 0,-25.5011306 -0.0358,-23.7831606 0.50753,-24.3656306 0.47934,-0.51388 0.79922,-0.59074 2.45851,-0.59074 h 1.53664 v 3.19628 c 0,1.7579596 0.0421,3.4184406 0.0936,3.6899506 0.39571,2.08652 2.51483,3.56265 4.5707204,3.18383 1.23007,-0.22665 2.19568,-0.86721 2.7802,-1.84432 0.51902,-0.86763 0.60282,-1.39521 0.60282,-3.7954406 v -2.13977 l -0.23515,-0.23515 c -0.2997,-0.29969 -0.66704,-0.29969 -0.96673,0 l -0.23515,0.23515 v 2.09493 c 0,2.3549906 -0.0638,2.6955006 -0.62814,3.3548606 -0.76264,0.89097 -2.09014,1.15198 -3.1207604,0.61358 -0.60313,-0.31508 -1.16863,-1.00428 -1.32121,-1.61021 -0.0634,-0.25169 -0.10319,-1.631751 -0.10319,-3.5767506 v -3.16694 H 29.036452 50.448158 V 23.583216 41.977164 h -5.79228 -5.79228 l -0.19534,0.20966 c -0.1925,0.20664 -0.19533,0.30164 -0.19533,6.56243 v 6.35276 l -17.651486,-0.002 c -16.9563404,-0.002 -17.6665704,-0.009 -18.0346904,-0.17897 z"
       id="path4172" />
    <path
       style="display:inline;fill:#ff0000;fill-opacity:0;stroke-width:0.0958019"
       d="m 2.7867716,54.920944 c -0.46378,-0.21405 -0.75565,-0.51733 -0.95345,-0.99074 -0.13246,-0.31702 -0.14827,-2.85378 -0.14827,-23.784568 0,-25.5011306 -0.0358,-23.7831606 0.50753,-24.3656306 0.47934,-0.51388 0.79922,-0.59074 2.45851,-0.59074 h 1.53664 v 3.19628 c 0,1.7579596 0.0421,3.4184406 0.0936,3.6899506 0.39571,2.08652 2.51483,3.56265 4.5707204,3.18383 1.23007,-0.22665 2.19568,-0.86721 2.7802,-1.84432 0.51902,-0.86763 0.60282,-1.39521 0.60282,-3.7954406 v -2.13977 l -0.23515,-0.23515 c -0.2997,-0.29969 -0.66704,-0.29969 -0.96673,0 l -0.23515,0.23515 v 2.09493 c 0,2.3549906 -0.0638,2.6955006 -0.62814,3.3548606 -0.76264,0.89097 -2.09014,1.15198 -3.1207604,0.61358 -0.60313,-0.31508 -1.16863,-1.00428 -1.32121,-1.61021 -0.0634,-0.25169 -0.10319,-1.631751 -0.10319,-3.5767506 v -3.16694 H 29.036452 50.448158 V 23.583216 41.977164 h -5.79228 -5.79228 l -0.19534,0.20966 c -0.1925,0.20664 -0.19533,0.30164 -0.19533,6.56243 v 6.35276 l -17.651486,-0.002 c -16.9563404,-0.002 -17.6665704,-0.009 -18.0346904,-0.17897 z"
       id="path4248" />
  </g>
</svg>
