<?xml version="1.0" encoding="UTF-8" standalone="no"?>
<svg
   width="24"
   height="24"
   viewBox="0 0 24 24"
   version="1.1"
   id="svg1348"
   sodipodi:docname="note_06_bg100.svg"
   inkscape:version="1.1.1 (3bf5ae0d25, 2021-09-20)"
   xmlns:inkscape="http://www.inkscape.org/namespaces/inkscape"
   xmlns:sodipodi="http://sodipodi.sourceforge.net/DTD/sodipodi-0.dtd"
   xmlns:xlink="http://www.w3.org/1999/xlink"
   xmlns="http://www.w3.org/2000/svg"
   xmlns:svg="http://www.w3.org/2000/svg">
  <defs
     id="defs1352">
    <linearGradient
       id="linearGradient2015"
       inkscape:swatch="solid">
      <stop
         style="stop-color:#ffffff;stop-opacity:1;"
         offset="0"
         id="stop2013" />
    </linearGradient>
    <linearGradient
       id="linearGradient1142"
       inkscape:swatch="solid">
      <stop
         style="stop-color:#000000;stop-opacity:0;"
         offset="0"
         id="stop1140" />
    </linearGradient>
    <linearGradient
       inkscape:collect="always"
       xlink:href="#linearGradient1142"
       id="linearGradient1144"
       x1="4.2442969"
       y1="12.502441"
       x2="19.637252"
       y2="12.502441"
       gradientUnits="userSpaceOnUse" />
  </defs>
  <sodipodi:namedview
     id="namedview1350"
     pagecolor="#ffffff"
     bordercolor="#666666"
     borderopacity="1.0"
     inkscape:pageshadow="2"
     inkscape:pageopacity="0.0"
     inkscape:pagecheckerboard="0"
     showgrid="false"
     inkscape:zoom="33.833333"
     inkscape:cx="11.985222"
     inkscape:cy="11.926108"
     inkscape:window-width="1920"
     inkscape:window-height="1001"
     inkscape:window-x="-9"
     inkscape:window-y="-9"
     inkscape:window-maximized="1"
     inkscape:current-layer="layer1" />
  <g
     fill="none"
     fill-rule="evenodd"
     id="g1346" />
  <g
     inkscape:groupmode="layer"
     id="layer1"
     inkscape:label="bg"
     style="display:inline">
    <path
       style="fill:#ffffff;fill-opacity:1;stroke:url(#linearGradient1144);stroke-width:0.377953;stroke-linecap:butt;stroke-linejoin:miter;stroke-miterlimit:4;stroke-dasharray:none;stroke-opacity:1"
       d="M 6.3842365,4.6403941 17.586207,4.5812808 19.448276,5.586207 V 18.8867 L 18.029557,20.423646 6.2068966,20.394089 4.4630542,19.004926 4.4334976,6.0000001 Z"
       id="path1138" />
  </g>
  <g
     inkscape:groupmode="layer"
     id="layer2"
     inkscape:label="org"
     style="display:inline">
    <path
       fill="#000000"
       fill-rule="nonzero"
       d="m 9.9704453,4.4014779 c 0,0.2761424 -0.2238582,0.5 -0.5000002,0.5 -0.276143,0 -0.5,-0.2238576 -0.5,-0.5 0,-0.8284271 0.671572,-1.5 1.5000049,-1.5 h 3.000002 c 0.828427,0 1.5,0.6715729 1.5,1.5 0,0.2761424 -0.223858,0.5 -0.5,0.5 -0.276142,0 -0.5,-0.2238576 -0.5,-0.5 0,-0.2761424 -0.223858,-0.5 -0.5,-0.5 H 10.47045 c -0.276145,0 -0.5000047,0.2238576 -0.5000047,0.5 z m -3.5000007,-0.5 c 0.2761424,0 0.5,0.2238576 0.5,0.5 0,0.2761424 -0.2238576,0.5 -0.5,0.5 -0.8284271,0 -1.5,0.6715729 -1.5,1.5 V 18.401478 c 0,0.828427 0.6715729,1.5 1.5,1.5 H 17.470452 c 0.828427,0 1.5,-0.671573 1.5,-1.5 V 6.4014779 c 0,-0.8284271 -0.671573,-1.5 -1.5,-1.5 -0.276142,0 -0.5,-0.2238576 -0.5,-0.5 0,-0.2761424 0.223858,-0.5 0.5,-0.5 1.380712,0 2.5,1.1192881 2.5,2.5 V 18.401478 c 0,1.380712 -1.119288,2.5 -2.5,2.5 H 6.4704446 c -1.3807119,0 -2.5,-1.119288 -2.5,-2.5 V 6.4014779 c 0,-1.3807119 1.1192881,-2.5 2.5,-2.5 z"
       id="path1342" />
  </g>
</svg>
