<?xml version="1.0" encoding="UTF-8" standalone="no"?>
<!-- Generator: Adobe Illustrator 21.1.0, SVG Export Plug-In . SVG Version: 6.00 Build 0)  -->

<svg
   version="1.1"
   id="Layer_1"
   x="0px"
   y="0px"
   width="24"
   height="24"
   viewBox="0 0 24 24"
   enable-background="new 0 0 24 24"
   xml:space="preserve"
   sodipodi:docname="note_05_bg100.svg"
   inkscape:version="1.1.1 (3bf5ae0d25, 2021-09-20)"
   xmlns:inkscape="http://www.inkscape.org/namespaces/inkscape"
   xmlns:sodipodi="http://sodipodi.sourceforge.net/DTD/sodipodi-0.dtd"
   xmlns:xlink="http://www.w3.org/1999/xlink"
   xmlns="http://www.w3.org/2000/svg"
   xmlns:svg="http://www.w3.org/2000/svg"><defs
   id="defs145"><linearGradient
     id="linearGradient4659"
     inkscape:swatch="solid"><stop
       style="stop-color:#000000;stop-opacity:1;"
       offset="0"
       id="stop4657" /></linearGradient><linearGradient
     id="linearGradient4585"
     inkscape:swatch="solid"><stop
       style="stop-color:#000000;stop-opacity:1;"
       offset="0"
       id="stop4583" /></linearGradient><linearGradient
     id="linearGradient4348"
     inkscape:swatch="solid"><stop
       style="stop-color:#303c42;stop-opacity:1;"
       offset="0"
       id="stop4346" /></linearGradient><linearGradient
     id="linearGradient1447"
     inkscape:swatch="solid"><stop
       style="stop-color:#303c42;stop-opacity:1;"
       offset="0"
       id="stop1445" /></linearGradient><linearGradient
     inkscape:collect="always"
     xlink:href="#linearGradient4659"
     id="linearGradient4661"
     x1="4.6395807"
     y1="12.076895"
     x2="19.237814"
     y2="12.076895"
     gradientUnits="userSpaceOnUse" /></defs><sodipodi:namedview
   id="namedview143"
   pagecolor="#ffffff"
   bordercolor="#666666"
   borderopacity="1.0"
   inkscape:pageshadow="2"
   inkscape:pageopacity="0.0"
   inkscape:pagecheckerboard="0"
   showgrid="false"
   inkscape:zoom="32.625"
   inkscape:cx="12"
   inkscape:cy="11.938697"
   inkscape:window-width="1920"
   inkscape:window-height="1001"
   inkscape:window-x="-9"
   inkscape:window-y="-9"
   inkscape:window-maximized="1"
   inkscape:current-layer="layer5" />

<g
   id="g112">
</g>
<g
   id="g114">
</g>
<g
   id="g116">
</g>
<g
   id="g118">
</g>
<g
   id="g120">
</g>
<g
   id="g122">
</g>
<g
   id="g124">
</g>
<g
   id="g126">
</g>
<g
   id="g128">
</g>
<g
   id="g130">
</g>
<g
   id="g132">
</g>
<g
   id="g134">
</g>
<g
   id="g136">
</g>
<g
   id="g138">
</g>
<g
   id="g140">
</g>
<g
   inkscape:groupmode="layer"
   id="layer5"
   inkscape:label="bg"
   style="display:inline"><path
     style="fill:#ffffff;stroke:url(#linearGradient4661);stroke-width:0.1;stroke-linecap:butt;stroke-linejoin:miter;stroke-opacity:1;stroke-miterlimit:4;stroke-dasharray:none"
     d="M 4.7203065,1.8084291 H 19.157088 L 19.187739,22.344828 4.6896552,22.191571 Z"
     id="path4622" /></g><g
   inkscape:groupmode="layer"
   id="layer6"
   inkscape:label="orgi"
   style="display:inline"><g
     id="g110"
     transform="translate(1.0609936,0.59748274)"><path
       fill="#303c42"
       d="M 17.38317,0.44976378 H 4.754765 c -1.0053711,0 -1.8237305,0.89548482 -1.8237305,1.99851212 V 20.448275 c 0,1.103028 0.8183594,2 1.8237305,2 h 12.352539 c 1.005371,0 1.82373,-0.896972 1.82373,-2 V 10.214328 l 6.2e-4,-7.7651941 C 18.916745,0.33699174 17.38317,0.44976378 17.38317,0.44976378 Z"
       id="path78"
       sodipodi:nodetypes="cssssssccc" /><path
       fill="#ffffff"
       d="m 17.808429,20.417625 c 0,0.551269 -0.369629,1 -0.82373,1 H 4.6321596 c -0.4541016,0 -0.8237305,-0.448731 -0.8237305,-1 V 2.4176245 c 0,-0.5512695 0.3696289,-1 0.8237305,-1 h 1.6762695 v 1.1537476 c -0.293335,0.1745605 -0.5,0.481018 -0.5,0.8462524 0,0.5512695 0.4487305,1 1,1 0.5512695,0 1,-0.4487305 1,-1 0,-0.3652344 -0.206665,-0.6716919 -0.5,-0.8462524 V 1.4176245 h 2.9999999 v 1.1537476 c -0.293335,0.1745605 -0.4999999,0.481018 -0.4999999,0.8462524 0,0.5512695 0.4487309,1 0.9999999,1 0.55127,0 1,-0.4487305 1,-1 0,-0.3652344 -0.206665,-0.6716919 -0.5,-0.8462524 V 1.4176245 h 3 v 1.1537476 c -0.293335,0.1745605 -0.5,0.481018 -0.5,0.8462524 0,0.5512695 0.448731,1 1,1 0.55127,0 1,-0.4487305 1,-1 0,-0.3652344 -0.206665,-0.6716919 -0.5,-0.8462524 V 1.4176245 h 1.67627 c 0.454101,0 0.82373,0.4487305 0.82373,1 v 1.2018433 c 0,0 0.05629,1.8016452 0,7.5527292 z"
       id="path80"
       sodipodi:nodetypes="ssssssccsssccccsssccccsssccssccs" /><linearGradient
       id="SVGID_1_"
       gradientUnits="userSpaceOnUse"
       x1="10.134598"
       y1="13.865402"
       x2="16.870205"
       y2="20.601009"><stop
         offset="0"
         style="stop-color:#010101;stop-opacity:0.1"
         id="stop92" /><stop
         offset="1"
         style="stop-color:#010101;stop-opacity:0"
         id="stop94" /></linearGradient><linearGradient
       id="SVGID_2_"
       gradientUnits="userSpaceOnUse"
       x1="-0.76713908"
       y1="6.3084121"
       x2="19.638205"
       y2="15.823581"
       gradientTransform="translate(2.2988506,-0.1532567)"><stop
         offset="0"
         style="stop-color:#FFFFFF;stop-opacity:0.2"
         id="stop103" /><stop
         offset="1"
         style="stop-color:#FFFFFF;stop-opacity:0"
         id="stop105" /></linearGradient></g></g></svg>
