<?xml version="1.0" encoding="UTF-8" standalone="no"?>
<svg
   width="24"
   height="24"
   viewBox="0 0 24 24"
   version="1.1"
   id="svg19"
   sodipodi:docname="note_120060.svg"
   inkscape:version="1.1.1 (3bf5ae0d25, 2021-09-20)"
   xmlns:inkscape="http://www.inkscape.org/namespaces/inkscape"
   xmlns:sodipodi="http://sodipodi.sourceforge.net/DTD/sodipodi-0.dtd"
   xmlns="http://www.w3.org/2000/svg"
   xmlns:svg="http://www.w3.org/2000/svg">
  <defs
     id="defs23" />
  <sodipodi:namedview
     id="namedview21"
     pagecolor="#ffffff"
     bordercolor="#666666"
     borderopacity="1.0"
     inkscape:pageshadow="2"
     inkscape:pageopacity="0.0"
     inkscape:pagecheckerboard="0"
     showgrid="false"
     inkscape:zoom="32.625"
     inkscape:cx="12"
     inkscape:cy="11.938697"
     inkscape:window-width="1920"
     inkscape:window-height="1001"
     inkscape:window-x="-9"
     inkscape:window-y="-9"
     inkscape:window-maximized="1"
     inkscape:current-layer="svg19" />
  <path
     id="path17"
     d="M 6.5,3 C 5.1192881,3 4,4.1192881 4,5.5 v 13 C 4,19.880712 5.1192881,21 6.5,21 h 7 c 3.589851,0 6.5,-2.910149 6.5,-6.5 v -9 C 20,4.1192881 18.880712,3 17.5,3 Z m 0,1 h 11 C 18.328427,4 19,4.6715729 19,5.5 v 9 C 19,15.328427 18.328427,16 17.5,16 16.119288,16 15,17.119288 15,18.5 15,19.328427 14.328427,20 13.5,20 h -7 C 5.6715729,20 5,19.328427 5,18.5 V 5.5 C 5,4.6715729 5.6715729,4 6.5,4 Z m 2.5429688,3.9277344 c 0.00106,9.416e-4 0.0027,0.00115 0.00391,0.00195 l 0.00195,-0.00195 c -0.00196,2.477e-4 -0.00388,-2.663e-4 -0.00586,0 z m 3.0292972,6.7499996 c -0.0281,8.64e-4 -0.05591,0.0027 -0.08399,0.0039 0.02147,3e-6 0.04298,3e-6 0.06445,0 0.0033,-3.17e-4 0.01501,-0.0032 0.01953,-0.0039 z m -2.8789066,0.208985 c 0.00447,0.0043 0.00984,0.0075 0.013672,0.0098 0.00129,-10e-7 0.00261,2e-6 0.00391,0 -0.00402,-0.0036 -0.00571,-0.0048 -0.011719,-0.0098 -0.00195,-6.4e-5 -0.00391,6.3e-5 -0.00586,0 z m 9.3085936,1.904297 c -0.54884,1.19602 -1.514917,2.162097 -2.710937,2.710937 C 15.925208,19.195342 16,18.85611 16,18.5 16,17.671573 16.671573,17 17.5,17 c 0.35611,0 0.695342,-0.07479 1.001953,-0.208984 z" />
</svg>
