<?xml version="1.0" encoding="UTF-8" standalone="no"?>
<!-- Creator: CorelDRAW X6 -->

<svg
   xml:space="preserve"
   width="331"
   height="415"
   version="1.1"
   style="shape-rendering:geometricPrecision; text-rendering:geometricPrecision; image-rendering:optimizeQuality; fill-rule:evenodd; clip-rule:evenodd"
   viewBox="0 0 500 500"
   id="svg1696"
   sodipodi:docname="taskboardlinear_106203.svg"
   inkscape:version="1.1.1 (3bf5ae0d25, 2021-09-20)"
   xmlns:inkscape="http://www.inkscape.org/namespaces/inkscape"
   xmlns:sodipodi="http://sodipodi.sourceforge.net/DTD/sodipodi-0.dtd"
   xmlns="http://www.w3.org/2000/svg"
   xmlns:svg="http://www.w3.org/2000/svg"><sodipodi:namedview
   id="namedview1698"
   pagecolor="#ffffff"
   bordercolor="#666666"
   borderopacity="1.0"
   inkscape:pageshadow="2"
   inkscape:pageopacity="0.0"
   inkscape:pagecheckerboard="0"
   showgrid="false"
   inkscape:zoom="1.624"
   inkscape:cx="250.30788"
   inkscape:cy="250.30788"
   inkscape:window-width="1920"
   inkscape:window-height="1001"
   inkscape:window-x="-9"
   inkscape:window-y="-9"
   inkscape:window-maximized="1"
   inkscape:current-layer="Layer_x0020_1" />
 <defs
   id="defs1672">
  <style
   type="text/css"
   id="style1670">
   <![CDATA[
    .str2 {stroke:#303030;stroke-width:10}
    .str0 {stroke:#005792;stroke-width:15}
    .str1 {stroke:#0099FF;stroke-width:15}
    .fil0 {fill:none}
   ]]>
  </style>
 </defs>
 <g
   id="Layer_x0020_1"
   inkscape:label="Layer 1">
  <metadata
   id="CorelCorpID_0Corel-Layer" />
  <path
   class="fil0 str0"
   d="M358 93l36 0c8,0 14,6 14,14l0 329c0,8 -6,14 -14,14l-288 0c-8,0 -14,-6 -14,-14l0 -329c0,-8 6,-14 14,-14l36 0"
   id="path1675" />
  <path
   class="fil0 str1"
   d="M369 121l-238 0c-2,0 -4,-2 -4,-4 -1,-2 -1,-5 1,-6l28 -36c1,-1 2,-1 3,-1l58 0c3,0 5,-3 5,-6l0 -12c0,-3 2,-6 5,-6l46 0c3,0 5,3 5,6l0 12c0,3 2,6 5,6l58 0c1,0 2,0 3,1l28 36c2,1 2,4 1,6 0,2 -2,4 -4,4z"
   id="path1677" />
  
  
  
  
  
  
  
  
 </g>
</svg>
