<?xml version="1.0" encoding="UTF-8" standalone="no"?>
<svg
   width="24"
   height="24"
   viewBox="0 0 24 24"
   version="1.1"
   id="svg19"
   sodipodi:docname="note_04_bg100.svg"
   inkscape:version="1.1.1 (3bf5ae0d25, 2021-09-20)"
   xmlns:inkscape="http://www.inkscape.org/namespaces/inkscape"
   xmlns:sodipodi="http://sodipodi.sourceforge.net/DTD/sodipodi-0.dtd"
   xmlns:xlink="http://www.w3.org/1999/xlink"
   xmlns="http://www.w3.org/2000/svg"
   xmlns:svg="http://www.w3.org/2000/svg">
  <defs
     id="defs23">
    <linearGradient
       id="linearGradient966"
       inkscape:swatch="solid">
      <stop
         style="stop-color:#000000;stop-opacity:1;"
         offset="0"
         id="stop964" />
    </linearGradient>
    <linearGradient
       inkscape:collect="always"
       xlink:href="#linearGradient966"
       id="linearGradient968"
       x1="4.9154277"
       y1="11.969339"
       x2="19.850902"
       y2="11.969339"
       gradientUnits="userSpaceOnUse" />
  </defs>
  <sodipodi:namedview
     id="namedview21"
     pagecolor="#ffffff"
     bordercolor="#666666"
     borderopacity="1.0"
     inkscape:pageshadow="2"
     inkscape:pageopacity="0.0"
     inkscape:pagecheckerboard="0"
     showgrid="false"
     inkscape:zoom="32.625"
     inkscape:cx="12"
     inkscape:cy="11.938697"
     inkscape:window-width="1920"
     inkscape:window-height="1001"
     inkscape:window-x="-9"
     inkscape:window-y="-9"
     inkscape:window-maximized="1"
     inkscape:current-layer="layer1" />
  <g
     inkscape:groupmode="layer"
     id="layer1"
     inkscape:label="bg">
    <path
       style="fill:#ffffff;stroke:url(#linearGradient968);stroke-width:0.1;stroke-linecap:butt;stroke-linejoin:miter;stroke-opacity:1;stroke-miterlimit:4;stroke-dasharray:none"
       d="m 4.9655172,4.7509579 1.2260537,-1.2260537 12.0766281,0.061303 1.440613,1.0727969 0.09195,11.8620689 -2.574712,3.095785 -2.51341,0.796935 -8.3065137,-0.09195 -1.3793104,-1.37931 z"
       id="path962" />
  </g>
  <g
     inkscape:groupmode="layer"
     id="layer2"
     inkscape:label="orig"
     style="display:inline">
    <path
       id="path17"
       d="m 6.9214559,2.9310345 c -1.3807119,0 -2.5,1.1192881 -2.5,2.5 V 18.431034 c 0,1.380712 1.1192881,2.5 2.5,2.5 h 7.0000001 c 3.589851,0 6.5,-2.910149 6.5,-6.5 V 5.4310345 c 0,-1.3807119 -1.119288,-2.5 -2.5,-2.5 z m 0,1 H 17.921456 c 0.828427,0 1.5,0.6715729 1.5,1.5 v 8.9999995 c 0,0.828428 -0.671573,1.5 -1.5,1.5 -1.380712,0 -2.5,1.119289 -2.5,2.5 0,0.828427 -0.671573,1.5 -1.5,1.5 H 6.9214559 c -0.8284271,0 -1.5,-0.671573 -1.5,-1.5 V 5.4310345 c 0,-0.8284271 0.6715729,-1.5 1.5,-1.5 z M 9.464425,7.8587689 c 0.0011,9.416e-4 0.0027,0.00115 0.0039,0.00195 l 0.002,-0.00195 c -0.002,2.477e-4 -0.0039,-2.663e-4 -0.0059,0 z m 3.029297,6.7500001 c -0.0281,8.64e-4 -0.05591,0.0027 -0.08399,0.0039 0.02147,3e-6 0.04298,3e-6 0.06445,0 0.0033,-3.18e-4 0.01501,-0.0032 0.01953,-0.0039 z m -2.878907,0.208985 c 0.0045,0.0043 0.0098,0.0075 0.01367,0.0098 0.0013,-10e-7 0.0026,2e-6 0.0039,0 -0.004,-0.0036 -0.0057,-0.0048 -0.01172,-0.0098 -0.0019,-6.4e-5 -0.0039,6.3e-5 -0.0059,0 z m 9.308594,1.904297 c -0.54884,1.19602 -1.514917,2.162096 -2.710937,2.710937 0.134192,-0.306612 0.208984,-0.645844 0.208984,-1.001954 0,-0.828427 0.671573,-1.5 1.5,-1.5 0.35611,0 0.695342,-0.07479 1.001953,-0.208983 z" />
  </g>
</svg>
