<?xml version="1.0" encoding="UTF-8" standalone="no"?>
<!-- Creator: CorelDRAW X6 -->

<svg
   xml:space="preserve"
   width="331"
   height="415"
   version="1.1"
   style="shape-rendering:geometricPrecision; text-rendering:geometricPrecision; image-rendering:optimizeQuality; fill-rule:evenodd; clip-rule:evenodd"
   viewBox="0 0 500 500"
   id="svg1696"
   sodipodi:docname="note_07_bg100.svg"
   inkscape:version="1.1.1 (3bf5ae0d25, 2021-09-20)"
   xmlns:inkscape="http://www.inkscape.org/namespaces/inkscape"
   xmlns:sodipodi="http://sodipodi.sourceforge.net/DTD/sodipodi-0.dtd"
   xmlns="http://www.w3.org/2000/svg"
   xmlns:svg="http://www.w3.org/2000/svg"><sodipodi:namedview
   id="namedview1698"
   pagecolor="#ffffff"
   bordercolor="#666666"
   borderopacity="1.0"
   inkscape:pageshadow="2"
   inkscape:pageopacity="0.0"
   inkscape:pagecheckerboard="0"
   showgrid="false"
   inkscape:zoom="1.624"
   inkscape:cx="250.30788"
   inkscape:cy="249.07635"
   inkscape:window-width="1920"
   inkscape:window-height="1001"
   inkscape:window-x="-9"
   inkscape:window-y="-9"
   inkscape:window-maximized="1"
   inkscape:current-layer="layer3" />
 <defs
   id="defs1672"><linearGradient
   id="linearGradient2317"
   inkscape:swatch="solid"><stop
     style="stop-color:#ffffff;stop-opacity:1;"
     offset="0"
     id="stop2315" /></linearGradient>
  <style
   type="text/css"
   id="style1670">
   <![CDATA[
    .str2 {stroke:#303030;stroke-width:10}
    .str0 {stroke:#005792;stroke-width:15}
    .str1 {stroke:#0099FF;stroke-width:15}
    .fil0 {fill:none}
   ]]>
  </style>
 </defs>
 <g
   id="Layer_x0020_1"
   inkscape:label="Layer 1">
  <metadata
   id="CorelCorpID_0Corel-Layer" />
  
  
  
  
  
  
  
  
  
  
 </g><g
   inkscape:groupmode="layer"
   id="layer3"
   inkscape:label="bg"><path
     style="fill:#ffffff;stroke:#000000;stroke-width:1px;stroke-linecap:butt;stroke-linejoin:miter;stroke-opacity:1;fill-opacity:1"
     d="m 224.13793,52.955665 h 52.3399 l 0.61577,20.935961 67.3596,0.950739 14,18 41.79311,1.369458 7.38916,8.004927 1.23153,336.2069 -8.00493,9.85221 -296.79803,0.61577 -10.467981,-9.85222 1.231527,-340.517243 6.773404,-6.773399 40.85221,1.093597 14,-18 63.99015,-2.79803 z"
     id="path2313" /></g><g
   inkscape:groupmode="layer"
   id="layer4"
   inkscape:label="org"
   style="display:inline"><path
     class="fil0 str0"
     d="m 358.4532,92.842365 h 36 c 8,0 14,6.000005 14,13.999995 v 329 c 0,8 -6,14 -14,14 h -288 c -7.999998,0 -13.999998,-6 -13.999998,-14 v -329 c 0,-8 6,-13.999995 13.999998,-13.999995 h 36"
     id="path1675"
     style="clip-rule:evenodd;fill:none;fill-rule:evenodd;stroke:#005792;stroke-width:15;image-rendering:optimizeQuality;shape-rendering:geometricPrecision;text-rendering:geometricPrecision" /><path
     class="fil0 str1"
     d="m 369.4532,120.84236 h -238 c -2,0 -4,-2 -4,-4 -1,-2 -1,-5 1,-6 l 28,-35.999995 c 1,-1 2,-1 3,-1 h 58 c 3,0 5,-3 5,-6 v -12 c 0,-3 2,-6 5,-6 h 46 c 3,0 5,3 5,6 v 12 c 0,3 2,6 5,6 h 58 c 1,0 2,0 3,1 l 28,35.999995 c 2,1 2,4 1,6 0,2 -2,4 -4,4 z"
     id="path1677"
     style="clip-rule:evenodd;fill:none;fill-rule:evenodd;stroke:#0099ff;stroke-width:15;image-rendering:optimizeQuality;shape-rendering:geometricPrecision;text-rendering:geometricPrecision" /></g>
</svg>
