<?xml version="1.0" encoding="UTF-8" standalone="no"?>
<svg
   width="24"
   height="24"
   viewBox="0 0 24 24"
   version="1.1"
   id="svg1348"
   sodipodi:docname="task_120291.svg"
   inkscape:version="1.1.1 (3bf5ae0d25, 2021-09-20)"
   xmlns:inkscape="http://www.inkscape.org/namespaces/inkscape"
   xmlns:sodipodi="http://sodipodi.sourceforge.net/DTD/sodipodi-0.dtd"
   xmlns="http://www.w3.org/2000/svg"
   xmlns:svg="http://www.w3.org/2000/svg">
  <defs
     id="defs1352" />
  <sodipodi:namedview
     id="namedview1350"
     pagecolor="#ffffff"
     bordercolor="#666666"
     borderopacity="1.0"
     inkscape:pageshadow="2"
     inkscape:pageopacity="0.0"
     inkscape:pagecheckerboard="0"
     showgrid="false"
     inkscape:zoom="33.833333"
     inkscape:cx="11.985222"
     inkscape:cy="12.014778"
     inkscape:window-width="1920"
     inkscape:window-height="1001"
     inkscape:window-x="-9"
     inkscape:window-y="-9"
     inkscape:window-maximized="1"
     inkscape:current-layer="g1346" />
  <g
     fill="none"
     fill-rule="evenodd"
     id="g1346">
    <path
       fill="#000"
       fill-rule="nonzero"
       d="M10,4.5 C10,4.77614237 9.77614237,5 9.5,5 C9.22385763,5 9,4.77614237 9,4.5 C9,3.67157288 9.67157288,3 10.5,3 L13.5,3 C14.3284271,3 15,3.67157288 15,4.5 C15,4.77614237 14.7761424,5 14.5,5 C14.2238576,5 14,4.77614237 14,4.5 C14,4.22385763 13.7761424,4 13.5,4 L10.5,4 C10.2238576,4 10,4.22385763 10,4.5 Z M6.5,4 C6.77614237,4 7,4.22385763 7,4.5 C7,4.77614237 6.77614237,5 6.5,5 C5.67157288,5 5,5.67157288 5,6.5 L5,18.5 C5,19.3284271 5.67157288,20 6.5,20 L17.5,20 C18.3284271,20 19,19.3284271 19,18.5 L19,6.5 C19,5.67157288 18.3284271,5 17.5,5 C17.2238576,5 17,4.77614237 17,4.5 C17,4.22385763 17.2238576,4 17.5,4 C18.8807119,4 20,5.11928813 20,6.5 L20,18.5 C20,19.8807119 18.8807119,21 17.5,21 L6.5,21 C5.11928813,21 4,19.8807119 4,18.5 L4,6.5 C4,5.11928813 5.11928813,4 6.5,4 Z"
       id="path1342" />
    <path
       id="path1344"
       d="m 15.621094,9.8007812 c -0.0347,0.054897 -0.06646,0.1040604 -0.119141,0.1835938 -0.09123,0.166539 -0.184851,0.331904 -0.277344,0.498047 l 0.08594,-0.08594 c 0.109758,-0.205788 0.212516,-0.40393 0.310547,-0.5957028 z m -1.648438,1.3535158 c -0.125861,0.132796 -0.06484,0.08771 -0.21875,0.253906 0.0062,0.0037 0.01124,0.0086 0.01563,0.01367 0.0046,-0.01137 0.01084,-0.01356 0.01563,0.0059 0.0084,0.03403 0.01333,0.06046 0.01953,0.08984 0.03558,-0.01657 0.06985,-0.03405 0.101562,-0.05078 0.02108,-0.03309 0.05115,-0.08071 0.08398,-0.134766 4.55e-4,-0.0013 0.0015,-0.0026 0.002,-0.0039 0.01542,-0.04376 0.02679,-0.07674 0.04101,-0.117187 -0.02251,-0.02413 -0.04078,-0.03935 -0.06055,-0.05664 z M 8.5,12 c -0.1279612,0 -0.2558846,0.04885 -0.3535156,0.146484 -0.1952622,0.195263 -0.1952622,0.511769 0,0.707032 l 1.7695312,1.769531 c 0.00505,-0.02219 0.012447,-0.04492 0.013672,-0.06445 6.05e-5,-0.002 0.0019,-0.0038 0.00195,-0.0059 1.47e-5,-0.0099 -1.36e-5,-0.01209 0,-0.02148 1.712e-4,-0.117819 -5.58e-5,-0.196771 0,-0.269531 -0.00122,-0.160187 -0.00459,-0.32027 -0.00391,-0.480469 2.4e-4,-0.05682 -0.050892,-0.149052 0.00195,-0.169922 0.0097,-0.0038 0.016306,-0.0045 0.025391,-0.0078 0.018387,-0.02368 0.052504,-0.03528 0.1054689,-0.03125 0.04851,-0.0095 0.08487,-0.01015 0.109375,0 0.003,-0.0063 0.0048,-0.01325 0.0078,-0.01953 -0.02541,-0.05271 -0.05077,-0.105471 -0.07617,-0.158203 l -0.1249995,-0.125 c -0.00207,0.0039 -0.00837,0.01501 -0.00977,0.01758 -0.1395442,0.257177 -0.4010999,0.113619 -0.2597657,-0.142578 0.00965,-0.01749 0.034075,-0.06144 0.050781,-0.09375 L 8.8535156,12.146484 C 8.7558846,12.048853 8.6279612,12 8.5,12 Z m 1.863281,2.828125 c -0.02349,0.01561 -0.05131,0.02366 -0.08789,0.01953 -0.0051,0.03421 -0.0089,0.05785 -0.01367,0.08984 0.04059,0.02211 0.08285,0.0388 0.126953,0.04883 0.005,-0.01021 0.0078,-0.01796 0.01367,-0.0293 -9.73e-4,-0.0054 -0.0013,-0.01173 -0.002,-0.01758 -0.0024,-0.0017 -0.0055,-0.0021 -0.0078,-0.0039 -0.01683,-0.01327 -0.0076,-0.0367 0.002,-0.06055 -0.0035,-0.01005 -0.0036,-0.02242 -0.002,-0.03516 -0.0076,0.0064 -0.01062,0.0078 -0.01953,0.01563 -6e-6,-0.0012 1.8e-5,-0.02208 0,-0.02539 -0.0032,-5.9e-5 -0.0065,-0.0017 -0.0098,-0.002 z m 0.34961,0.07031 c -0.0028,0.0042 -0.0071,0.0084 -0.01172,0.01172 0.0017,0.01707 7.82e-4,0.03252 -0.002,0.04687 0.02508,-0.01094 0.05085,-0.02186 0.07422,-0.03711 -0.01639,0.0033 -0.03385,0.0047 -0.04883,0.0098 -4.02e-4,-0.0108 -0.0016,-0.01887 -0.002,-0.0293 -0.0032,-4.1e-4 -0.0067,-0.0015 -0.0098,-0.002 z" />
  </g>
</svg>
