<svg xmlns="http://www.w3.org/2000/svg" width="20" height="20" viewBox="0 0 20 20">
    <path data-name="사각형 1782" style="fill:none" d="M0 0h20v20H0z"/>
    <path data-name="합치기 37" d="M361.983 1310.577a9.857 9.857 0 0 1-1.889-2.823 9.75 9.75 0 0 1 1.8-2.885 8.494 8.494 0 0 1 6.534-2.885h.158a9.192 9.192 0 0 1 4.024.941 8.732 8.732 0 0 1 2.575 1.978 9.177 9.177 0 0 1 1.77 2.849 9.649 9.649 0 0 1-1.829 2.823 8.79 8.79 0 0 1-2.582 1.941 9.192 9.192 0 0 1-10.56-1.941zm2.759-2.9a3.8 3.8 0 1 0 3.8-3.8 3.8 3.8 0 0 0-3.8 3.801zm1.5.009a2.28 2.28 0 1 1 2.28 2.281 2.28 2.28 0 0 1-2.28-2.28z" transform="translate(-358.148 -1297.823)" style="fill:#fff"/>
</svg>
