<svg xmlns="http://www.w3.org/2000/svg" width="18" height="18" viewBox="0 0 18 18">
    <path data-name="사각형 1671" style="fill:none" d="M0 0h18v18H0z"/>
    <g data-name="그룹 1091">
        <path data-name="패스 762" d="m1513.609 1616.6.925 1.423h6.544a.691.691 0 0 1 .691.692v4.748l-7.742 1.53-6.7 1.325v-9.243a.692.692 0 0 1 .692-.692h5.274a.347.347 0 0 1 .316.217z" transform="translate(-1506.323 -1613.385)" style="stroke:#d4d4d4;stroke-miterlimit:10;fill:none"/>
        <path data-name="패스 761" d="M1523.575 1622.928h-14.447l-1.806 4.4a1.382 1.382 0 0 0 1.382 1.381h11.682a1.382 1.382 0 0 0 1.382-1.381z" transform="translate(-1506.323 -1614.02)" style="fill:#404451;stroke:#d4d4d4;stroke-miterlimit:10"/>
    </g>
</svg>
